<svg id="Layer_1" data-name="Layer 1" xmlns="http://www.w3.org/2000/svg" viewBox="0 0 168.75 112.5"><defs><style>.cls-1{fill:#d00100;}.cls-2{fill:#f9ea37;}.cls-11,.cls-3,.cls-61{fill:#bf0d0d;}.cls-10,.cls-12,.cls-13,.cls-14,.cls-15,.cls-16,.cls-17,.cls-18,.cls-19,.cls-20,.cls-21,.cls-22,.cls-23,.cls-24,.cls-25,.cls-26,.cls-27,.cls-28,.cls-29,.cls-3,.cls-30,.cls-31,.cls-32,.cls-33,.cls-34,.cls-35,.cls-37,.cls-38,.cls-4,.cls-41,.cls-42,.cls-43,.cls-44,.cls-45,.cls-46,.cls-47,.cls-48,.cls-49,.cls-50,.cls-51,.cls-52,.cls-53,.cls-54,.cls-56,.cls-57,.cls-58,.cls-59,.cls-6,.cls-60,.cls-61,.cls-62,.cls-63,.cls-65,.cls-66,.cls-67,.cls-68,.cls-7,.cls-8{stroke:#000;}.cls-3,.cls-61{stroke-miterlimit:10;stroke-width:0.07px;}.cls-10,.cls-11,.cls-12,.cls-13,.cls-14,.cls-15,.cls-16,.cls-17,.cls-18,.cls-19,.cls-20,.cls-21,.cls-22,.cls-23,.cls-24,.cls-25,.cls-26,.cls-27,.cls-28,.cls-29,.cls-3,.cls-30,.cls-31,.cls-32,.cls-35,.cls-37,.cls-38,.cls-39,.cls-4,.cls-40,.cls-41,.cls-42,.cls-43,.cls-44,.cls-45,.cls-46,.cls-47,.cls-48,.cls-49,.cls-5,.cls-50,.cls-51,.cls-52,.cls-53,.cls-54,.cls-55,.cls-56,.cls-57,.cls-58,.cls-6,.cls-60,.cls-62,.cls-63,.cls-64,.cls-65,.cls-66,.cls-67,.cls-7,.cls-8,.cls-9{fill-rule:evenodd;}.cls-31,.cls-32,.cls-33,.cls-36,.cls-37,.cls-38,.cls-4,.cls-5,.cls-58,.cls-59,.cls-6,.cls-62,.cls-67,.cls-68,.cls-8{fill:#baa928;}.cls-10,.cls-12,.cls-13,.cls-14,.cls-15,.cls-16,.cls-17,.cls-18,.cls-19,.cls-20,.cls-21,.cls-22,.cls-23,.cls-24,.cls-25,.cls-26,.cls-27,.cls-28,.cls-29,.cls-30,.cls-32,.cls-33,.cls-34,.cls-38,.cls-4,.cls-41,.cls-42,.cls-43,.cls-44,.cls-45,.cls-46,.cls-47,.cls-48,.cls-49,.cls-50,.cls-51,.cls-52,.cls-53,.cls-54,.cls-56,.cls-57,.cls-58,.cls-6,.cls-60,.cls-62,.cls-63,.cls-65,.cls-66,.cls-68,.cls-7{stroke-miterlimit:22.93;}.cls-10,.cls-37,.cls-38,.cls-4,.cls-65,.cls-7,.cls-8{stroke-width:0.04px;}.cls-6{stroke-width:0.05px;}.cls-12,.cls-13,.cls-14,.cls-15,.cls-16,.cls-17,.cls-18,.cls-19,.cls-20,.cls-21,.cls-22,.cls-23,.cls-24,.cls-25,.cls-26,.cls-27,.cls-30,.cls-35,.cls-41,.cls-42,.cls-43,.cls-44,.cls-45,.cls-46,.cls-47,.cls-48,.cls-49,.cls-50,.cls-51,.cls-52,.cls-53,.cls-54,.cls-56,.cls-7{fill:none;}.cls-31,.cls-35,.cls-37,.cls-59,.cls-67,.cls-8{stroke-linejoin:round;}.cls-57,.cls-9{fill:#419846;}.cls-10,.cls-29,.cls-34,.cls-40{fill:#e8e8e8;}.cls-12{stroke-width:0px;}.cls-13{stroke-width:0px;}.cls-14{stroke-width:0px;}.cls-15{stroke-width:0.01px;}.cls-16,.cls-66{stroke-width:0.01px;}.cls-17{stroke-width:0.01px;}.cls-18{stroke-width:0.01px;}.cls-19{stroke-width:0.01px;}.cls-20{stroke-width:0.01px;}.cls-21{stroke-width:0.02px;}.cls-22{stroke-width:0.02px;}.cls-23{stroke-width:0.02px;}.cls-24{stroke-width:0.02px;}.cls-25{stroke-width:0.02px;}.cls-26{stroke-width:0.02px;}.cls-27{stroke-width:0.03px;}.cls-28{fill:#3152ba;stroke-width:0.1px;}.cls-29,.cls-30,.cls-31,.cls-32,.cls-33,.cls-34,.cls-35,.cls-63{stroke-width:0.06px;}.cls-37,.cls-38{stroke-linecap:round;}.cls-41{stroke-width:0.04px;}.cls-42{stroke-width:0.05px;}.cls-43{stroke-width:0.05px;}.cls-44{stroke-width:0.06px;}.cls-45{stroke-width:0.07px;}.cls-46,.cls-62{stroke-width:0.07px;}.cls-47{stroke-width:0.08px;}.cls-48{stroke-width:0.09px;}.cls-49{stroke-width:0.1px;}.cls-50{stroke-width:0.1px;}.cls-51{stroke-width:0.11px;}.cls-52{stroke-width:0.12px;}.cls-53{stroke-width:0.12px;}.cls-54{stroke-width:0.15px;}.cls-55{fill:#f3d695;}.cls-56,.cls-58{stroke-width:0.08px;}.cls-57{stroke-width:0.05px;}.cls-59{stroke-width:0.06px;}.cls-60{fill:#4ca97b;stroke-width:0.05px;}.cls-63{fill:#c04946;}.cls-64{fill:#cf70a9;}.cls-67,.cls-68{stroke-width:0.05px;}</style></defs><rect class="cls-1" y="-0.19" width="168.75" height="28.12"/><rect class="cls-1" y="84.18" width="168.75" height="28.12"/><rect class="cls-2" y="27.93" width="168.75" height="56.25"/><path d="M72,49.4h0a.79.79,0,0,0,0-.25.68.68,0,0,0-.66-.68.65.65,0,0,0-.38.13,0,0,0,0,0,0,0h0a.54.54,0,0,1,.34-.12.62.62,0,0,1,.61.63.66.66,0,0,1,0,.23,0,0,0,0,0,0,0Z"/><path d="M70.86,49.17h0a.8.8,0,0,0,0-.26.67.67,0,0,0-.66-.67.54.54,0,0,0-.37.13s0,0,0,0h0a.54.54,0,0,1,.34-.12.62.62,0,0,1,.61.62.72.72,0,0,1,0,.24,0,0,0,0,0,0,0Z"/><path d="M68.35,49.17h0a.59.59,0,0,1-.06-.26.67.67,0,0,1,.67-.67.58.58,0,0,1,.37.13s0,0,0,0h0a.54.54,0,0,0-.33-.12.61.61,0,0,0-.61.62.75.75,0,0,0,0,.24s0,0,0,0Z"/><path class="cls-3" d="M34.31,49.89a.38.38,0,0,1-.17,0,2.56,2.56,0,0,1-.26-.22l-.15-.11-.14-.19a.52.52,0,0,1,.23-.81l.36-.13a2.1,2.1,0,0,1,.25-.09l.29-.07.13-.06a.88.88,0,0,1,.2,0l.26-.06.37,0h.37l.49,0h.26a1.17,1.17,0,0,1,.33.1l.47.17a4.07,4.07,0,0,1,.52.14.82.82,0,0,1,.27.25,1.07,1.07,0,0,1,.1.23.53.53,0,0,1,0,.25c0,.06-.12.19-.12.19l-.14.22-.17.15s-.13.12-.23.11a14.69,14.69,0,0,0-1.8-.2A12.07,12.07,0,0,0,34.31,49.89Z"/><path class="cls-4" d="M36.35,48.41c0-.31-.14-.56-.31-.56s-.31.25-.31.56.14.56.31.56S36.35,48.72,36.35,48.41Z"/><path class="cls-4" d="M36.19,48.41c0-.28-.06-.52-.14-.52s-.15.24-.15.52.07.52.15.52S36.19,48.7,36.19,48.41Z"/><path class="cls-5" d="M36.26,47.82a.21.21,0,0,0-.21-.2.2.2,0,1,0,0,.39A.21.21,0,0,0,36.26,47.82Z"/><polygon class="cls-6" points="36.33 47.75 36.33 47.88 35.77 47.88 35.77 47.75 35.98 47.75 35.98 47.45 35.84 47.45 35.84 47.32 35.98 47.32 35.98 47.2 36.11 47.2 36.11 47.32 36.25 47.32 36.25 47.45 36.11 47.45 36.11 47.75 36.33 47.75"/><path class="cls-7" d="M36.11,47.63a.2.2,0,0,1,.15.19.21.21,0,0,1-.21.19.2.2,0,0,1-.21-.19.19.19,0,0,1,.15-.19Z"/><path class="cls-4" d="M36.05,49.85H35l0-.26,0-.28,0-.35c-.3-.39-.58-.65-.67-.59a.24.24,0,0,1,.11-.16c.26-.16.81.22,1.22.84l.1.17h.9l.1-.17c.41-.62,1-1,1.22-.84.06,0,.08.09.11.16s-.37.2-.67.59l0,.35-.05.28,0,.26Z"/><path d="M36.84,49.21l-.05,0c.35-.52.76-.87,1-.87l.1,0,0,.05C37.68,48.26,37.21,48.64,36.84,49.21Zm-1.58,0c-.37-.56-.84-.94-1-.83l0-.05c.22-.12.71.25,1.1.85Z"/><path class="cls-4" d="M34.45,50.34a1.47,1.47,0,0,0-.13-.25,7.19,7.19,0,0,1,3.45,0l-.11.21-.09.18a6.46,6.46,0,0,0-3.07,0Z"/><path class="cls-4" d="M36,50.9a7.61,7.61,0,0,0,1.38-.14c.14,0,.23-.12.22-.19a.13.13,0,0,0-.09-.09A5.35,5.35,0,0,0,36,50.3a5.45,5.45,0,0,0-1.51.18.14.14,0,0,0-.08.09c0,.07.07.14.22.19A8.5,8.5,0,0,0,36,50.9Z"/><path class="cls-4" d="M37.8,49.85l-.13-.12a.45.45,0,0,1-.29.05c-.16,0-.21-.21-.21-.21a.59.59,0,0,1-.32.14.39.39,0,0,1-.24-.14.57.57,0,0,1-.3.1c-.14,0-.27-.19-.27-.19a.62.62,0,0,1-.29.2.34.34,0,0,1-.25-.12.32.32,0,0,1-.24.16.41.41,0,0,1-.33-.14.54.54,0,0,1-.22.2.34.34,0,0,1-.28-.06l0,.1a.08.08,0,0,1-.07,0l0,.11a6.24,6.24,0,0,1,1.7-.2,6.37,6.37,0,0,1,1.71.2Z"/><path class="cls-4" d="M36.05,49.27h.06a.22.22,0,0,0,0,.08.25.25,0,0,0,.25.24.27.27,0,0,0,.24-.16s0-.09,0-.09,0,.09,0,.09a.25.25,0,0,0,.25.2.24.24,0,0,0,.25-.23v0l.08-.08,0,.1a.16.16,0,0,0,0,.1.24.24,0,0,0,.43.13l.06-.07v.08c0,.08,0,.15.11.16a.31.31,0,0,0,.2-.08,1,1,0,0,0,.18-.17v.09a1,1,0,0,1-.22.25.33.33,0,0,1-.22.06.21.21,0,0,1-.15-.14.34.34,0,0,1-.17,0,.33.33,0,0,1-.32-.19.38.38,0,0,1-.55,0,.34.34,0,0,1-.24.09.36.36,0,0,1-.3-.15.39.39,0,0,1-.31.15.34.34,0,0,1-.24-.09.38.38,0,0,1-.55,0,.33.33,0,0,1-.32.19.34.34,0,0,1-.17,0,.21.21,0,0,1-.16.14.34.34,0,0,1-.21-.06,1.1,1.1,0,0,1-.23-.25l0-.09a1.65,1.65,0,0,0,.18.17.32.32,0,0,0,.21.08.15.15,0,0,0,.11-.16v-.08l0,.07a.24.24,0,0,0,.43-.13.16.16,0,0,0,0-.1l0-.1.08.08v0a.24.24,0,0,0,.25.23.25.25,0,0,0,.25-.2s0-.09,0-.09,0,.09,0,.09a.27.27,0,0,0,.24.16.25.25,0,0,0,.25-.24.22.22,0,0,0,0-.08Z"/><path class="cls-8" d="M36,49.88a7.26,7.26,0,0,0-1.72.21.08.08,0,0,1-.08,0s0-.07,0-.07a7.19,7.19,0,0,1,3.53,0,.06.06,0,0,1,0,.07.08.08,0,0,1-.08,0A7.29,7.29,0,0,0,36,49.88Z"/><path class="cls-4" d="M33.74,49.61l-.15-.17a.45.45,0,0,0-.15-.07s.06-.06.13-.06a.12.12,0,0,1,.1,0v0a.11.11,0,0,1,.08.07.31.31,0,0,1,0,.16A.17.17,0,0,1,33.74,49.61Z"/><path class="cls-5" d="M34.17,49.43l0,.15-.31,0,0,0v-.05l.24-.2Zm0,0Z"/><path class="cls-7" d="M34.17,49.43l0,.15-.31,0,0,0v-.05l.24-.2Zm0,0Z"/><path class="cls-4" d="M33.74,49.55a.09.09,0,0,1,.12,0s.06.09,0,.12-.08,0-.12,0A.09.09,0,0,1,33.74,49.55Z"/><path class="cls-4" d="M34.32,49.58s0-.08,0-.09.07,0,.08.06a.06.06,0,0,1,0,.09S34.34,49.62,34.32,49.58Z"/><path class="cls-5" d="M34.47,49.39l.11.11.28-.15,0-.05,0,0-.32,0Zm0,0Z"/><path class="cls-7" d="M34.47,49.39l.11.11.28-.15,0-.05,0,0-.32,0Zm0,0Z"/><path class="cls-5" d="M34.79,48.88l-.16.14.2.26.05,0,0,0L35,49Zm0,0Z"/><path class="cls-7" d="M34.79,48.88l-.16.14.2.26.05,0,0,0L35,49Zm0,0Z"/><path class="cls-5" d="M35.3,49.22l-.06.15-.31,0,0,0,0,0,.27-.14Zm0,0Z"/><path class="cls-7" d="M35.3,49.22l-.06.15-.31,0,0,0,0,0,.27-.14Zm0,0Z"/><path class="cls-4" d="M35,49.3a.11.11,0,0,0-.22,0,.11.11,0,0,0,.22,0Z"/><path class="cls-4" d="M35.41,49.37a.09.09,0,0,1,.05-.09s.06,0,.07.08a.06.06,0,0,1-.05.08S35.42,49.41,35.41,49.37Z"/><path class="cls-5" d="M35.62,49.21l.09.13.3-.09,0,0,0,0-.3-.09Zm0,0Z"/><path class="cls-7" d="M35.62,49.21l.09.13.3-.09,0,0,0,0-.3-.09Zm0,0Z"/><polygon class="cls-4" points="36.04 48.74 35.85 48.86 35.99 49.17 36.04 49.2 36.09 49.17 36.23 48.86 36.04 48.74"/><polygon class="cls-4" points="36.47 49.21 36.38 49.34 36.08 49.24 36.05 49.2 36.08 49.16 36.38 49.07 36.47 49.21"/><path class="cls-4" d="M36.15,49.2a.1.1,0,0,0-.11-.1.11.11,0,0,0-.11.1.11.11,0,0,0,.11.11A.1.1,0,0,0,36.15,49.2Z"/><path class="cls-4" d="M36.68,49.37a.08.08,0,0,0,0-.09s-.06,0-.07.08,0,.08,0,.08S36.67,49.41,36.68,49.37Z"/><path class="cls-5" d="M36.79,49.22l.06.15.31,0,0,0,0,0-.27-.14Zm0,0Z"/><path class="cls-7" d="M36.79,49.22l.06.15.31,0,0,0,0,0-.27-.14Zm0,0Z"/><path class="cls-5" d="M37.3,48.88l.16.14-.2.26,0,0,0,0L37.1,49Zm0,0Z"/><path class="cls-7" d="M37.3,48.88l.16.14-.2.26,0,0,0,0L37.1,49Zm0,0Z"/><path class="cls-5" d="M37.62,49.39l-.11.11-.28-.15,0-.05,0,0,.32,0Zm0,0Z"/><path class="cls-7" d="M37.62,49.39l-.11.11-.28-.15,0-.05,0,0,.32,0Zm0,0Z"/><path class="cls-4" d="M37.32,49.3a.11.11,0,0,0-.22,0,.11.11,0,0,0,.22,0Z"/><path class="cls-4" d="M37.77,49.58s0-.08,0-.09-.07,0-.08.06a.06.06,0,0,0,0,.09S37.75,49.62,37.77,49.58Z"/><path class="cls-4" d="M38.31,49.61a1.22,1.22,0,0,1,.15-.17.45.45,0,0,1,.15-.07s-.07-.06-.13-.06a.12.12,0,0,0-.1,0v0a.13.13,0,0,0-.09.07.4.4,0,0,0,0,.16A.17.17,0,0,0,38.31,49.61Z"/><path class="cls-5" d="M37.88,49.43l0,.15.31,0,.05,0v-.05l-.24-.2Zm0,0Z"/><path class="cls-7" d="M37.88,49.43l0,.15.31,0,.05,0v-.05l-.24-.2Zm0,0Z"/><path class="cls-4" d="M38.31,49.55a.09.09,0,0,0-.12,0,.1.1,0,0,0,0,.12s.08,0,.12,0S38.34,49.58,38.31,49.55Z"/><polygon class="cls-3" points="34.33 50.35 34.4 50.24 34.55 50.27 34.46 50.39 34.33 50.35"/><path class="cls-9" d="M35,50.24l-.16,0a.07.07,0,1,1,0-.13l.16,0,.16,0s.07,0,.08.06a.08.08,0,0,1-.06.08Zm0,0Z"/><path class="cls-7" d="M35,50.24l-.16,0a.07.07,0,1,1,0-.13l.16,0,.16,0s.07,0,.08.06a.08.08,0,0,1-.06.08Zm0,0Z"/><path class="cls-10" d="M35.59,50.12a.1.1,0,0,0-.1-.09.09.09,0,0,0-.1.09.1.1,0,0,0,.1.1A.11.11,0,0,0,35.59,50.12Z"/><path class="cls-3" d="M36.05,50.17h-.22a.08.08,0,0,1-.07-.08.07.07,0,0,1,.07-.06h.44s.08,0,.08.06a.09.09,0,0,1-.08.08Z"/><path class="cls-10" d="M36.7,50.12a.09.09,0,0,0-.09-.09.09.09,0,0,0-.1.09.1.1,0,0,0,.1.1A.1.1,0,0,0,36.7,50.12Z"/><path class="cls-9" d="M37.13,50.24l.16,0a.07.07,0,1,0,0-.13l-.16,0-.16,0a.06.06,0,0,0-.08.06s0,.07.06.08Zm0,0Z"/><path class="cls-7" d="M37.13,50.24l.16,0a.07.07,0,1,0,0-.13l-.16,0-.16,0a.06.06,0,0,0-.08.06s0,.07.06.08Zm0,0Z"/><path class="cls-11" d="M37.75,50.36l-.06-.12h-.15l.07.13Zm0,0Z"/><path class="cls-7" d="M37.75,50.36l-.06-.12h-.15l.07.13Zm0,0Z"/><path class="cls-3" d="M36,50.77a5.83,5.83,0,0,1-1.42-.15A7,7,0,0,1,36,50.46a6.35,6.35,0,0,1,1.43.16A5.86,5.86,0,0,1,36,50.77Z"/><path class="cls-12" d="M36.3,50.75v0Zm-.13,0v0Zm-.1,0v0Z"/><path class="cls-13" d="M36,50.77v0Z"/><path class="cls-14" d="M35.91,50.77v0Z"/><path class="cls-15" d="M35.84,50.77v0Z"/><path class="cls-15" d="M35.77,50.77v0Z"/><path class="cls-16" d="M35.7,50.77v0Z"/><path class="cls-17" d="M35.58,50.75v0Zm.06,0v0Z"/><path class="cls-18" d="M35.47,50.74v0Zm.05,0v0Z"/><path class="cls-19" d="M35.31,50.73v0Zm0,0v0Zm.06,0v0Z"/><path class="cls-20" d="M35.26,50.72v0Z"/><path class="cls-21" d="M35.21,50.71v0Z"/><path class="cls-22" d="M35.16,50.71v0Z"/><path class="cls-23" d="M35.05,50.69v0Zm.05,0v0Z"/><path class="cls-23" d="M35,50.68v0Z"/><path class="cls-24" d="M34.94,50.67v0Z"/><path class="cls-25" d="M34.88,50.66v0Z"/><path class="cls-26" d="M34.83,50.65v0Z"/><path class="cls-27" d="M34.77,50.64v0Z"/><path class="cls-28" d="M39.56,74.28a2,2,0,0,1-.89-.19,2,2,0,0,0-.87-.19,2.08,2.08,0,0,0-.88.19,2.08,2.08,0,0,1-1.76,0,2,2,0,0,0-.86-.18,1.82,1.82,0,0,0-.86.19,2,2,0,0,1-.89.19v.55a2,2,0,0,0,.89-.2,1.82,1.82,0,0,1,.86-.19,2,2,0,0,1,.86.19,2,2,0,0,0,.88.2,1.91,1.91,0,0,0,.88-.2,2.08,2.08,0,0,1,.88-.19,2,2,0,0,1,.87.19,1.94,1.94,0,0,0,.88.2Z"/><path class="cls-29" d="M39.56,74.83a2,2,0,0,1-.89-.2,2,2,0,0,0-.87-.18,2.09,2.09,0,0,0-.88.18,1.91,1.91,0,0,1-.88.2,2,2,0,0,1-.88-.2,2,2,0,0,0-.86-.18,1.83,1.83,0,0,0-.86.18,2,2,0,0,1-.89.2v.54a2,2,0,0,0,.89-.2A1.83,1.83,0,0,1,34.3,75a2,2,0,0,1,.86.18,1.91,1.91,0,0,0,.88.2,2,2,0,0,0,.88-.19A1.94,1.94,0,0,1,37.8,75a1.87,1.87,0,0,1,.87.19,1.94,1.94,0,0,0,.88.19Z"/><path class="cls-28" d="M39.56,75.37a2,2,0,0,1-.89-.19A1.87,1.87,0,0,0,37.8,75a1.94,1.94,0,0,0-.88.19,2,2,0,0,1-.88.19,1.91,1.91,0,0,1-.88-.2A2,2,0,0,0,34.3,75a1.83,1.83,0,0,0-.86.18,2,2,0,0,1-.89.2v.54a2,2,0,0,0,.89-.2,2,2,0,0,1,.86-.18,2,2,0,0,1,.86.18,2.08,2.08,0,0,0,1.76,0,1.94,1.94,0,0,1,.88-.19,1.87,1.87,0,0,1,.87.19,1.94,1.94,0,0,0,.88.19Z"/><path class="cls-29" d="M39.55,76.45a1.94,1.94,0,0,1-.88-.19,1.87,1.87,0,0,0-.87-.19,1.94,1.94,0,0,0-.88.19,2.08,2.08,0,0,1-1.76,0,2,2,0,0,0-.86-.18,1.82,1.82,0,0,0-.86.19,2,2,0,0,1-.89.19v-.54a2,2,0,0,0,.89-.2,2,2,0,0,1,.86-.18,2,2,0,0,1,.86.18,2.08,2.08,0,0,0,1.76,0,1.94,1.94,0,0,1,.88-.19,1.87,1.87,0,0,1,.87.19,2,2,0,0,0,.89.19Zm0,0Z"/><path class="cls-30" d="M39.55,76.45a1.94,1.94,0,0,1-.88-.19,1.87,1.87,0,0,0-.87-.19,1.94,1.94,0,0,0-.88.19,2.08,2.08,0,0,1-1.76,0,2,2,0,0,0-.86-.18,1.82,1.82,0,0,0-.86.19,2,2,0,0,1-.89.19v-.54a2,2,0,0,0,.89-.2,2,2,0,0,1,.86-.18,2,2,0,0,1,.86.18,2.08,2.08,0,0,0,1.76,0,1.94,1.94,0,0,1,.88-.19,1.87,1.87,0,0,1,.87.19,2,2,0,0,0,.89.19Zm0,0Z"/><path class="cls-28" d="M39.55,77a1.94,1.94,0,0,1-.88-.2,2,2,0,0,0-.87-.19,2.08,2.08,0,0,0-.88.19,2,2,0,0,1-1.76,0,2,2,0,0,0-.86-.18,1.82,1.82,0,0,0-.86.19,2,2,0,0,1-.89.2v-.54a2,2,0,0,0,.89-.2,1.82,1.82,0,0,1,.86-.19,2,2,0,0,1,.86.18,2.08,2.08,0,0,0,1.76,0,1.94,1.94,0,0,1,.88-.19,1.87,1.87,0,0,1,.87.19,2,2,0,0,0,.89.19Z"/><path class="cls-31" d="M34.07,72.06a.35.35,0,0,1,0,.14.61.61,0,0,1-.63.59h5.16A.61.61,0,0,1,38,72.2a.68.68,0,0,1,0-.14h-4Z"/><path class="cls-32" d="M34.17,71.72h3.75c.13,0,.23.08.23.17a.21.21,0,0,1-.23.18H34.17a.21.21,0,0,1-.23-.18C33.94,71.8,34,71.72,34.17,71.72Z"/><rect class="cls-33" x="33.48" y="72.79" width="5.15" height="1.31"/><rect class="cls-34" x="34.22" y="53.59" width="3.66" height="17.92"/><path class="cls-30" d="M36.82,53.61v0Zm.41,0v0Z"/><rect class="cls-33" x="33.55" y="50.85" width="5.02" height="1.31"/><path class="cls-31" d="M34.07,53l.1,0h3.75L38,53a.3.3,0,0,1,0-.59h-4a.29.29,0,0,1,.21.29A.31.31,0,0,1,34.07,53Z"/><path class="cls-32" d="M34.17,53h3.75a.19.19,0,1,1,0,.36H34.17a.19.19,0,1,1,0-.36Z"/><path class="cls-32" d="M34.17,52.17h3.75c.13,0,.24.06.24.14s-.11.15-.24.15H34.17c-.13,0-.23-.06-.23-.15S34,52.17,34.17,52.17Z"/><path class="cls-3" d="M33.08,67.07c-.51.29-.86.6-.8.75s.19.24.42.39.58.71.41.92a1.3,1.3,0,0,0,0-2.06Z"/><path class="cls-11" d="M41.61,60.29a11.55,11.55,0,0,0-3.71-.63,12.37,12.37,0,0,0-1.75.16c-2.19.37-3.86,1.24-3.73,2,0,0,0,0,0,.06s-.81-1.85-.83-1.92c-.14-.79,1.7-1.76,4.13-2.16a11.92,11.92,0,0,1,2.15-.17,11.76,11.76,0,0,1,3.72.5Zm0,0Z"/><path class="cls-35" d="M41.61,60.29a11.55,11.55,0,0,0-3.71-.63,12.37,12.37,0,0,0-1.75.16c-2.19.37-3.86,1.24-3.73,2,0,0,0,0,0,.06s-.81-1.85-.83-1.92c-.14-.79,1.7-1.76,4.13-2.16a11.92,11.92,0,0,1,2.15-.17,11.76,11.76,0,0,1,3.72.5Zm0,0Z"/><path class="cls-3" d="M34.21,62.54c-1-.07-1.71-.35-1.79-.77s.28-.71.9-1.05a8,8,0,0,0,.9.07Z"/><path class="cls-3" d="M37.88,61.17a3,3,0,0,1,1.35.45l0,0c.11.24-.45.73-1.38,1.28Z"/><path class="cls-3" d="M31.94,66c-.1-.29.89-.87,2.29-1.39.64-.22,1.16-.46,1.82-.75C38,63,39.42,62,39.25,61.66l0,0a13.23,13.23,0,0,1,.26,1.85c.18.33-1.13,1.3-2.92,2.16-.57.27-1.78.72-2.35.92-1,.35-2,1-1.94,1.27Z"/><path class="cls-3" d="M69.61,49.48a.9.9,0,0,1-.29.2c-.12,0-.27-.11-.27-.11a.58.58,0,0,1-.24.14c-.14,0-.32-.15-.32-.15a.75.75,0,0,1-.24.22.31.31,0,0,1-.26-.05.4.4,0,0,1-.14.14.17.17,0,0,1-.11,0l-.14-.09-.15-.16-.14,0-.07-.24,0-.13c0-.15.2-.32.52-.39a1.07,1.07,0,0,1,.47,0,1.25,1.25,0,0,1,.72-.18,1.24,1.24,0,0,1,.68.16,1.24,1.24,0,0,1,.68-.16,1.28,1.28,0,0,1,.72.18,1.07,1.07,0,0,1,.47,0c.31.07.54.24.51.39s0,.09,0,.13a2.46,2.46,0,0,1-.07.24l-.14,0-.15.16-.13.09a.17.17,0,0,1-.11,0,.5.5,0,0,1-.15-.14s-.14.1-.25.05a.65.65,0,0,1-.24-.22s-.19.18-.32.15a.58.58,0,0,1-.24-.14s-.16.13-.27.11A.79.79,0,0,1,69.61,49.48Z"/><path class="cls-4" d="M69.91,48.53c0-.24-.14-.44-.31-.44s-.31.2-.31.44.14.44.31.44S69.91,48.77,69.91,48.53Z"/><path class="cls-4" d="M69.75,48.53c0-.23-.06-.41-.14-.41s-.14.18-.14.41.06.4.14.4S69.75,48.75,69.75,48.53Z"/><ellipse class="cls-36" cx="69.61" cy="48.02" rx="0.21" ry="0.2"/><path class="cls-7" d="M69.67,47.83a.2.2,0,0,1-.06.39.2.2,0,0,1-.21-.2.19.19,0,0,1,.15-.19Z"/><polygon class="cls-6" points="69.9 47.95 69.9 48.08 69.33 48.08 69.33 47.95 69.54 47.95 69.54 47.66 69.4 47.66 69.4 47.53 69.54 47.53 69.54 47.4 69.68 47.4 69.68 47.53 69.81 47.53 69.81 47.66 69.68 47.66 69.68 47.95 69.9 47.95"/><path class="cls-8" d="M68,50.35a1.18,1.18,0,0,0-.12-.24,6.25,6.25,0,0,1,1.72-.21,6.38,6.38,0,0,1,1.73.21l-.12.21-.08.18a5.78,5.78,0,0,0-1.53-.19,5.39,5.39,0,0,0-1.55.2A.67.67,0,0,0,68,50.35Z"/><path class="cls-37" d="M69.61,50.91A6.59,6.59,0,0,0,71,50.77c.15,0,.24-.11.22-.19a.13.13,0,0,0-.08-.08,6.42,6.42,0,0,0-3,0,.14.14,0,0,0-.09.08c0,.08.08.15.23.19A6.59,6.59,0,0,0,69.61,50.91Z"/><path class="cls-4" d="M71.37,49.87l-.13-.12a.53.53,0,0,1-.29,0c-.16,0-.21-.22-.21-.22a.6.6,0,0,1-.33.14.38.38,0,0,1-.24-.14.55.55,0,0,1-.3.11.53.53,0,0,1-.27-.19s-.14.18-.28.19a.31.31,0,0,1-.25-.12.32.32,0,0,1-.24.16.41.41,0,0,1-.33-.14.59.59,0,0,1-.23.21.4.4,0,0,1-.28-.06l0,.1a.13.13,0,0,1-.07,0l0,.11a6.07,6.07,0,0,1,1.69-.21,6.35,6.35,0,0,1,1.72.21Z"/><path class="cls-38" d="M69.61,49.28l.07,0a.19.19,0,0,0,0,.08.25.25,0,0,0,.26.24.26.26,0,0,0,.24-.17s0-.08,0-.08,0,.09,0,.09a.24.24,0,0,0,.25.2.25.25,0,0,0,.25-.24,0,0,0,0,0,0,0l.08-.07,0,.09a.23.23,0,0,0,0,.11.24.24,0,0,0,.24.23.22.22,0,0,0,.2-.11l0-.06v.08c0,.08,0,.15.11.16a.31.31,0,0,0,.21-.09l.18-.16v.09a.88.88,0,0,1-.21.25.34.34,0,0,1-.22.05.22.22,0,0,1-.15-.13.35.35,0,0,1-.5-.15.34.34,0,0,1-.26.12.37.37,0,0,1-.28-.14.36.36,0,0,1-.25.1.38.38,0,0,1-.3-.15.36.36,0,0,1-.3.15.35.35,0,0,1-.24-.1.38.38,0,0,1-.28.14.38.38,0,0,1-.27-.12.35.35,0,0,1-.32.2.41.41,0,0,1-.18-.05.18.18,0,0,1-.15.13.31.31,0,0,1-.21-.05.9.9,0,0,1-.23-.25l0-.09a1.22,1.22,0,0,0,.18.16.29.29,0,0,0,.2.09c.08,0,.11-.08.11-.16v-.08l0,.06a.24.24,0,0,0,.44-.12.22.22,0,0,0,0-.11l0-.09.08.07v0a.25.25,0,0,0,.25.24.25.25,0,0,0,.25-.2v-.09s0,.08,0,.08a.25.25,0,0,0,.24.17.25.25,0,0,0,.25-.24.19.19,0,0,0,0-.08Z"/><path class="cls-8" d="M69.61,49.9a6.25,6.25,0,0,0-1.72.21.07.07,0,0,1-.08,0,.06.06,0,0,1,0-.07,7.15,7.15,0,0,1,3.52,0,.06.06,0,0,1,0,.11A6.38,6.38,0,0,0,69.61,49.9Z"/><path class="cls-4" d="M67.31,49.62s-.09-.1-.15-.16a.45.45,0,0,0-.15-.07s.06-.07.13-.07a.12.12,0,0,1,.1,0v0a.13.13,0,0,1,.08.07.55.55,0,0,1,0,.17A.15.15,0,0,1,67.31,49.62Z"/><path class="cls-5" d="M67.73,49.45l0,.15-.32,0,0,0v-.05l.24-.19Zm0,0Z"/><path class="cls-7" d="M67.73,49.45l0,.15-.32,0,0,0v-.05l.24-.19Zm0,0Z"/><path class="cls-4" d="M67.31,49.57a.09.09,0,0,1,.12,0s.06.09,0,.11a.08.08,0,0,1-.12,0S67.28,49.59,67.31,49.57Z"/><path class="cls-4" d="M67.89,49.6s0-.09,0-.1a.08.08,0,0,1,.08.06s0,.09,0,.1S67.91,49.64,67.89,49.6Z"/><path class="cls-5" d="M68,49.41l.11.11.28-.15,0,0,0,0-.32,0Zm0,0Z"/><path class="cls-7" d="M68,49.41l.11.11.28-.15,0,0,0,0-.32,0Zm0,0Z"/><path class="cls-5" d="M68.35,48.89,68.2,49l.2.26,0,0,0,0,.06-.31Zm0,0Z"/><path class="cls-7" d="M68.35,48.89,68.2,49l.2.26,0,0,0,0,.06-.31Zm0,0Z"/><path class="cls-5" d="M68.87,49.24l-.06.14-.32,0,0,0,0,0,.28-.15Zm0,0Z"/><path class="cls-7" d="M68.87,49.24l-.06.14-.32,0,0,0,0,0,.28-.15Zm0,0Z"/><path class="cls-4" d="M68.56,49.32a.11.11,0,1,0-.11.11A.11.11,0,0,0,68.56,49.32Z"/><path class="cls-8" d="M69,49.39s0-.09,0-.09a.08.08,0,0,1,.07.07c0,.05,0,.09,0,.09A.08.08,0,0,1,69,49.39Z"/><path class="cls-5" d="M69.19,49.23l.09.13.3-.1,0,0,0,0-.3-.09Zm0,0Z"/><path class="cls-7" d="M69.19,49.23l.09.13.3-.1,0,0,0,0-.3-.09Zm0,0Z"/><polygon class="cls-4" points="69.61 48.76 69.42 48.88 69.56 49.19 69.61 49.22 69.66 49.19 69.8 48.88 69.61 48.76"/><polygon class="cls-4" points="70.03 49.23 69.95 49.36 69.65 49.26 69.61 49.22 69.65 49.18 69.95 49.09 70.03 49.23"/><path class="cls-4" d="M69.72,49.22a.11.11,0,0,0-.22,0,.11.11,0,1,0,.22,0Z"/><path class="cls-8" d="M70.25,49.39s0-.09,0-.09a.08.08,0,0,0-.07.07c0,.05,0,.09.05.09A.08.08,0,0,0,70.25,49.39Z"/><path class="cls-5" d="M70.36,49.24l.06.14.31,0,0,0,0,0-.27-.15Zm0,0Z"/><path class="cls-7" d="M70.36,49.24l.06.14.31,0,0,0,0,0-.27-.15Zm0,0Z"/><path class="cls-5" d="M70.87,48.89,71,49l-.19.26,0,0,0,0L70.67,49Zm0,0Z"/><path class="cls-7" d="M70.87,48.89,71,49l-.19.26,0,0,0,0L70.67,49Zm0,0Z"/><path class="cls-5" d="M71.19,49.41l-.12.11-.27-.15,0,0,0,0,.31,0Zm0,0Z"/><path class="cls-7" d="M71.19,49.41l-.12.11-.27-.15,0,0,0,0,.31,0Zm0,0Z"/><path class="cls-4" d="M70.89,49.32a.11.11,0,0,0-.11-.11.11.11,0,0,0,0,.22A.11.11,0,0,0,70.89,49.32Z"/><path class="cls-4" d="M71.34,49.6s0-.09,0-.1a.11.11,0,0,0-.09.06s0,.09,0,.1S71.32,49.64,71.34,49.6Z"/><path class="cls-4" d="M71.87,49.62s.09-.1.15-.16a.56.56,0,0,1,.15-.07s-.06-.07-.13-.07a.12.12,0,0,0-.1,0v0a.13.13,0,0,0-.08.07.44.44,0,0,0,0,.17A.1.1,0,0,0,71.87,49.62Z"/><path class="cls-5" d="M71.45,49.45l0,.15.32,0,0,0,0-.05-.23-.19Zm0,0Z"/><path class="cls-7" d="M71.45,49.45l0,.15.32,0,0,0,0-.05-.23-.19Zm0,0Z"/><path class="cls-4" d="M71.88,49.57a.09.09,0,0,0-.12,0s-.06.09,0,.11a.08.08,0,0,0,.12,0S71.9,49.59,71.88,49.57Z"/><path d="M67.26,49.4h0a.58.58,0,0,1,0-.25.67.67,0,0,1,.66-.68.64.64,0,0,1,.37.13,0,0,0,0,1,0,0h0a.56.56,0,0,0-.34-.12.62.62,0,0,0-.61.63.68.68,0,0,0,0,.23,0,0,0,0,1,0,0Z"/><path class="cls-29" d="M67.17,49.09a.09.09,0,0,0-.1-.1.1.1,0,0,0-.1.1.1.1,0,0,0,.1.09A.09.09,0,0,0,67.17,49.09Z"/><path class="cls-29" d="M67.21,48.73a.1.1,0,1,0-.1.1A.1.1,0,0,0,67.21,48.73Z"/><path class="cls-29" d="M67.44,48.46a.1.1,0,1,0-.1.1A.1.1,0,0,0,67.44,48.46Z"/><path class="cls-29" d="M67.74,48.31a.09.09,0,0,0-.1-.09.1.1,0,0,0-.1.09.1.1,0,0,0,.1.1A.09.09,0,0,0,67.74,48.31Z"/><path class="cls-29" d="M68.07,48.33a.1.1,0,0,0-.1-.1.09.09,0,0,0-.1.1.09.09,0,0,0,.1.09A.1.1,0,0,0,68.07,48.33Z"/><path class="cls-29" d="M68.27,48.73a.1.1,0,0,0-.11-.1.1.1,0,0,0-.1.1.1.1,0,0,0,.1.09A.1.1,0,0,0,68.27,48.73Z"/><path class="cls-29" d="M68.32,48.39a.09.09,0,0,0-.1-.1.1.1,0,0,0-.1.1.1.1,0,0,0,.1.09A.09.09,0,0,0,68.32,48.39Z"/><path class="cls-29" d="M68.58,48.18a.1.1,0,0,0-.1-.1.1.1,0,1,0,0,.19A.1.1,0,0,0,68.58,48.18Z"/><path class="cls-29" d="M68.9,48.08a.1.1,0,0,0-.1-.1.1.1,0,1,0,0,.19A.1.1,0,0,0,68.9,48.08Z"/><path class="cls-29" d="M69.22,48.09a.1.1,0,0,0-.2,0,.1.1,0,0,0,.2,0Z"/><path class="cls-29" d="M70.18,48.09a.1.1,0,0,0-.2,0,.1.1,0,0,0,.2,0Z"/><path class="cls-29" d="M70.51,48.08a.1.1,0,0,0-.1-.1.1.1,0,1,0,0,.19A.1.1,0,0,0,70.51,48.08Z"/><path class="cls-29" d="M70.82,48.18a.09.09,0,0,0-.1-.1.1.1,0,0,0-.1.1.1.1,0,0,0,.1.09A.09.09,0,0,0,70.82,48.18Z"/><path class="cls-29" d="M71.08,48.39a.1.1,0,0,0-.1-.1.09.09,0,0,0-.1.1.09.09,0,0,0,.1.09A.1.1,0,0,0,71.08,48.39Z"/><path class="cls-29" d="M71.14,48.73a.1.1,0,0,0-.11-.1.1.1,0,0,0-.1.1.1.1,0,0,0,.1.09A.1.1,0,0,0,71.14,48.73Z"/><path class="cls-29" d="M71.33,48.33a.09.09,0,0,0-.1-.1.1.1,0,0,0-.1.1.1.1,0,0,0,.1.09A.09.09,0,0,0,71.33,48.33Z"/><path class="cls-29" d="M71.66,48.31a.1.1,0,0,0-.1-.09.09.09,0,0,0-.1.09.09.09,0,0,0,.1.1A.1.1,0,0,0,71.66,48.31Z"/><path class="cls-29" d="M72,48.46a.1.1,0,0,0-.1-.1.1.1,0,0,0,0,.2A.1.1,0,0,0,72,48.46Z"/><path class="cls-29" d="M72.19,48.73a.1.1,0,0,0-.1-.1.1.1,0,1,0,0,.2A.1.1,0,0,0,72.19,48.73Z"/><path class="cls-29" d="M72.23,49.09a.1.1,0,0,0-.2,0,.1.1,0,0,0,.2,0Z"/><polygon class="cls-3" points="67.89 50.35 67.96 50.24 68.11 50.27 68.02 50.39 67.89 50.35"/><path class="cls-9" d="M68.52,50.24l-.15,0a.08.08,0,0,1-.09,0s0-.08.06-.08l.16,0,.16,0a.06.06,0,0,1,.08.06s0,.07-.06.08Zm0,0Z"/><path class="cls-7" d="M68.52,50.24l-.15,0a.08.08,0,0,1-.09,0s0-.08.06-.08l.16,0,.16,0a.06.06,0,0,1,.08.06s0,.07-.06.08Zm0,0Z"/><path class="cls-29" d="M69.15,50.12a.1.1,0,0,0-.1-.09.09.09,0,0,0-.1.09.1.1,0,0,0,.1.1A.11.11,0,0,0,69.15,50.12Z"/><path class="cls-3" d="M69.61,50.17H69.4a.09.09,0,0,1-.08-.08s0-.06.08-.06h.44a.07.07,0,0,1,.07.06.08.08,0,0,1-.07.08Z"/><path class="cls-29" d="M70.27,50.12a.1.1,0,0,0-.1-.09.09.09,0,0,0-.1.09.1.1,0,0,0,.1.1A.11.11,0,0,0,70.27,50.12Z"/><path class="cls-9" d="M70.69,50.24l.16,0a.07.07,0,1,0,0-.13l-.15,0-.16,0a.08.08,0,0,0-.09.06.08.08,0,0,0,.06.08Zm0,0Z"/><path class="cls-7" d="M70.69,50.24l.16,0a.07.07,0,1,0,0-.13l-.15,0-.16,0a.08.08,0,0,0-.09.06.08.08,0,0,0,.06.08Zm0,0Z"/><path class="cls-11" d="M71.31,50.36l-.06-.12H71.1l.08.13Zm0,0Z"/><path class="cls-7" d="M71.31,50.36l-.06-.12H71.1l.08.13Zm0,0Z"/><path class="cls-3" d="M69.61,50.77a5.72,5.72,0,0,1-1.42-.15,6.8,6.8,0,0,1,1.42-.16,6.32,6.32,0,0,1,1.42.16A5.83,5.83,0,0,1,69.61,50.77Z"/><path class="cls-39" d="M69.86,50.75v0Zm-.13,0v0Zm-.09,0v0Zm0,0Z"/><path class="cls-12" d="M69.86,50.75v0Zm-.13,0v0Zm-.09,0v0Zm0,0Z"/><path class="cls-13" d="M69.56,50.77v0Zm0,0Z"/><path class="cls-14" d="M69.48,50.77v0Zm0,0Z"/><path class="cls-15" d="M69.4,50.77v0Zm0,0Z"/><path class="cls-15" d="M69.33,50.77v0Zm0,0Z"/><path class="cls-16" d="M69.27,50.77v0Zm0,0Z"/><path class="cls-39" d="M69.14,50.75v0Zm.06,0v0Zm0,0Z"/><path class="cls-17" d="M69.14,50.75v0Zm.06,0v0Zm0,0Z"/><path class="cls-39" d="M69,50.74v0Zm.06,0v0Zm0,0Z"/><path class="cls-18" d="M69,50.74v0Zm.06,0v0Zm0,0Z"/><path class="cls-39" d="M68.88,50.73v0Zm.05,0v0Zm0,0v0Zm0,0Z"/><path class="cls-19" d="M68.88,50.73v0Zm.05,0v0Zm0,0v0Zm0,0Z"/><path class="cls-20" d="M68.82,50.72v0Zm0,0Z"/><path class="cls-21" d="M68.77,50.71v0Zm0,0Z"/><path class="cls-22" d="M68.72,50.71v0Zm0,0Z"/><path class="cls-39" d="M68.61,50.69v0Zm.06,0v0Zm0,0Z"/><path class="cls-23" d="M68.61,50.69v0Zm.06,0v0Zm0,0Z"/><path class="cls-23" d="M68.55,50.68v0Zm0,0Z"/><path class="cls-24" d="M68.5,50.67v0Zm0,0Z"/><path class="cls-25" d="M68.45,50.66v0Zm0,0Z"/><path class="cls-26" d="M68.39,50.65v0Zm0,0Z"/><path class="cls-27" d="M68.33,50.64v0Zm0,0Z"/><path class="cls-28" d="M73.12,74.28a1.88,1.88,0,0,1-.88-.19,2.07,2.07,0,0,0-.87-.19,2,2,0,0,0-.88.19,2.11,2.11,0,0,1-1.77,0,1.94,1.94,0,0,0-.85-.18,1.87,1.87,0,0,0-.87.19,2,2,0,0,1-.89.19v.55a2,2,0,0,0,.89-.2,1.87,1.87,0,0,1,.87-.19,2,2,0,0,1,.85.19,2.09,2.09,0,0,0,.89.2,1.94,1.94,0,0,0,.88-.2,2,2,0,0,1,.88-.19,2.07,2.07,0,0,1,.87.19,1.86,1.86,0,0,0,.87.2Z"/><path class="cls-29" d="M73.12,74.83a1.88,1.88,0,0,1-.88-.2,2.22,2.22,0,0,0-1.75,0,1.94,1.94,0,0,1-.88.2,2.09,2.09,0,0,1-.89-.2,1.94,1.94,0,0,0-.85-.18,1.87,1.87,0,0,0-.87.18,2,2,0,0,1-.89.2v.54a2,2,0,0,0,.89-.2,1.87,1.87,0,0,1,.87-.18,2,2,0,0,1,.85.18,2,2,0,0,0,.89.2,2.08,2.08,0,0,0,.88-.19,2.11,2.11,0,0,1,1.75,0,1.87,1.87,0,0,0,.87.19Z"/><path class="cls-28" d="M73.12,75.37a1.88,1.88,0,0,1-.88-.19,2.11,2.11,0,0,0-1.75,0,2.08,2.08,0,0,1-.88.19,2,2,0,0,1-.89-.2,1.94,1.94,0,0,0-.85-.18,1.87,1.87,0,0,0-.87.18,2,2,0,0,1-.89.2v.54a2,2,0,0,0,.89-.2,2,2,0,0,1,.87-.18,2,2,0,0,1,.85.18,2.11,2.11,0,0,0,1.77,0,2.11,2.11,0,0,1,1.75,0,1.87,1.87,0,0,0,.87.19Z"/><path class="cls-29" d="M73.11,76.45a1.9,1.9,0,0,1-.87-.19,2.11,2.11,0,0,0-1.75,0,2.11,2.11,0,0,1-1.77,0,1.94,1.94,0,0,0-.85-.18,1.87,1.87,0,0,0-.87.19,2,2,0,0,1-.89.19v-.54a2,2,0,0,0,.89-.2,2,2,0,0,1,.87-.18,2,2,0,0,1,.85.18,2.11,2.11,0,0,0,1.77,0,2.11,2.11,0,0,1,1.75,0,1.91,1.91,0,0,0,.88.19Zm0,0Z"/><path class="cls-30" d="M73.11,76.45a1.9,1.9,0,0,1-.87-.19,2.11,2.11,0,0,0-1.75,0,2.11,2.11,0,0,1-1.77,0,1.94,1.94,0,0,0-.85-.18,1.87,1.87,0,0,0-.87.19,2,2,0,0,1-.89.19v-.54a2,2,0,0,0,.89-.2,2,2,0,0,1,.87-.18,2,2,0,0,1,.85.18,2.11,2.11,0,0,0,1.77,0,2.11,2.11,0,0,1,1.75,0,1.91,1.91,0,0,0,.88.19Zm0,0Z"/><path class="cls-28" d="M73.11,77a1.89,1.89,0,0,1-.87-.2,2.07,2.07,0,0,0-.87-.19,2,2,0,0,0-.88.19,2,2,0,0,1-1.77,0,1.94,1.94,0,0,0-.85-.18,1.87,1.87,0,0,0-.87.19,2,2,0,0,1-.89.2v-.54a2,2,0,0,0,.89-.2,1.87,1.87,0,0,1,.87-.19,2,2,0,0,1,.85.18,2.11,2.11,0,0,0,1.77,0,2.11,2.11,0,0,1,1.75,0,1.91,1.91,0,0,0,.88.19Z"/><path class="cls-31" d="M67.64,72.06a.7.7,0,0,1,0,.14.61.61,0,0,1-.63.59H72.2a.61.61,0,0,1-.63-.59.34.34,0,0,1,0-.14h-4Z"/><path class="cls-32" d="M67.73,71.72h3.76c.12,0,.23.08.23.17a.21.21,0,0,1-.23.18H67.73a.21.21,0,0,1-.23-.18C67.5,71.8,67.6,71.72,67.73,71.72Z"/><rect class="cls-33" x="67.04" y="72.79" width="5.15" height="1.31"/><rect class="cls-34" x="67.78" y="53.59" width="3.66" height="17.92"/><path class="cls-30" d="M70.39,53.61v0Zm.41,0v0Z"/><path class="cls-3" d="M72.59,67.07c.51.29.85.6.8.75s-.19.24-.42.39-.59.71-.41.92a1.29,1.29,0,0,1,0-2.06Z"/><path class="cls-11" d="M64.06,60.29a11.5,11.5,0,0,1,3.71-.63,12.5,12.5,0,0,1,1.75.16c2.19.37,3.85,1.24,3.72,2v.06s.82-1.85.83-1.92c.15-.79-1.7-1.76-4.13-2.16a13.94,13.94,0,0,0-5.87.33Zm0,0Z"/><path class="cls-35" d="M64.06,60.29a11.5,11.5,0,0,1,3.71-.63,12.5,12.5,0,0,1,1.75.16c2.19.37,3.85,1.24,3.72,2v.06s.82-1.85.83-1.92c.15-.79-1.7-1.76-4.13-2.16a13.94,13.94,0,0,0-5.87.33Zm0,0Z"/><path class="cls-3" d="M71.45,62.54c1-.07,1.71-.35,1.79-.77s-.28-.71-.89-1.05a8,8,0,0,1-.9.07Z"/><path class="cls-3" d="M67.79,61.17a3,3,0,0,0-1.35.45l0,0c-.12.24.44.73,1.37,1.28Z"/><path class="cls-3" d="M73.73,66c.09-.29-.9-.87-2.29-1.39-.64-.22-1.17-.46-1.82-.75-2-.86-3.38-1.85-3.2-2.2l0,0a12,12,0,0,0-.27,1.85c-.17.33,1.14,1.3,2.93,2.16.57.27,1.78.72,2.35.92,1,.35,2,1,1.94,1.27Z"/><path class="cls-5" d="M34,59.43c.45-.16.74-.36.6-.71s-.32-.27-.67-.14l-.61.22.55,1.36.18-.08.2-.06Zm-.26-.66.15-.05a.27.27,0,0,1,.34.18.26.26,0,0,1-.11.35l-.16.07Zm0,0Z"/><path class="cls-5" d="M35.39,58.21l-.19,0-.2,0,.32,1.42,1-.2a.36.36,0,0,1,0-.09.28.28,0,0,0,0-.09l-.58.15Zm0,0Z"/><path class="cls-5" d="M37.37,59.42c.18-.51.41-1,.63-1.5l-.12,0h-.12c-.12.36-.27.72-.42,1.08-.19-.34-.39-.67-.55-1l-.23,0h-.23c.28.46.55.92.81,1.4l.12,0Z"/><path class="cls-5" d="M39.43,58.34a1.28,1.28,0,0,1,.11-.2.77.77,0,0,0-.41-.14c-.4,0-.63.13-.66.38-.06.5.75.46.71.8,0,.14-.17.2-.33.19a.34.34,0,0,1-.34-.27h0a2,2,0,0,1-.11.26.86.86,0,0,0,.41.13c.42.05.73-.12.76-.39,0-.48-.76-.51-.73-.79,0-.12.11-.2.32-.18a.31.31,0,0,1,.28.21Zm0,0Z"/><path class="cls-5" d="M66.34,59.5c.14-.52.31-1,.49-1.54l-.12,0h-.12c-.09.37-.2.74-.32,1.11-.22-.32-.45-.63-.64-1l-.23,0-.23,0c.32.43.64.87.94,1.33l.12,0Zm0,0Z"/><path class="cls-5" d="M67.73,58h-.4l0,1.44,1,0s0-.06,0-.09,0-.06,0-.09l-.61,0Z"/><path class="cls-5" d="M69.31,58.2l.47.07v-.09a.29.29,0,0,1,0-.09L68.43,58a.28.28,0,0,1,0,.09.29.29,0,0,1,0,.09h.49l-.11,1.3H69l.2,0Zm0,0Z"/><path class="cls-5" d="M69.87,59.63l.2,0,.19.05.16-.66h0c0,.1.09.21.11.27l.2.5.24,0,.23.06-.07-.15c-.11-.22-.22-.45-.31-.68.25,0,.44-.08.49-.28a.29.29,0,0,0-.15-.34,1.42,1.42,0,0,0-.41-.14l-.55-.12Zm.71-1.22c.16,0,.36.06.36.24s0,.08,0,.11c0,.21-.21.28-.48.2Z"/><path class="cls-5" d="M72.47,60.06a4.11,4.11,0,0,1-.07.47c.07,0,.14.06.2.1l.2.12.13-1.63-.09,0-.08,0-1.44.91.12.05.1.07c.12-.11.25-.19.39-.3Zm-.41-.37.48-.31-.05.54Zm0,0Z"/><path class="cls-3" d="M52.69,41a10.69,10.69,0,0,1,3.69.57,7.3,7.3,0,0,0,1.89.49,7.42,7.42,0,0,0,1.54.05,6.12,6.12,0,0,1,2.39.56A6.59,6.59,0,0,1,64,43.76l-.36.32-.1.89-1,1.11-.49.41-1.14.91-.59.05-.18.51-7.4-.87L45.31,48l-.18-.51-.59-.05-1.14-.91-.48-.41L42,45l-.1-.89-.35-.32a6.69,6.69,0,0,1,1.75-1.1,6.16,6.16,0,0,1,2.39-.56,7.4,7.4,0,0,0,1.54-.05,7.19,7.19,0,0,0,1.89-.49A10.3,10.3,0,0,1,52.69,41Z"/><path class="cls-32" d="M47.22,43l.31.25.47-.76A1.73,1.73,0,0,1,47.14,41a1.23,1.23,0,0,1,0-.2c0-1,1.23-1.79,2.74-1.79a3.6,3.6,0,0,1,2,.56c0-.15,0-.28,0-.42a4.08,4.08,0,0,0-2-.51c-1.73,0-3.09,1-3.15,2.16a1.23,1.23,0,0,0,0,.2,2.07,2.07,0,0,0,.74,1.57Z"/><path class="cls-5" d="M47.24,43a2.16,2.16,0,0,1-1-1.7,2.3,2.3,0,0,1,1.26-1.9,2,2,0,0,0-.79,1.41,1.23,1.23,0,0,0,0,.2,2.07,2.07,0,0,0,.74,1.57Zm0,0Z"/><path class="cls-30" d="M47.24,43a2.16,2.16,0,0,1-1-1.7,2.3,2.3,0,0,1,1.26-1.9,2,2,0,0,0-.79,1.41,1.23,1.23,0,0,0,0,.2,2.07,2.07,0,0,0,.74,1.57Zm0,0Z"/><path class="cls-32" d="M42,43.73a2,2,0,0,1-.34-2.26c.48-1,2-1.71,3.78-1.71a6.78,6.78,0,0,1,1.38.15,2.7,2.7,0,0,0-.25.34,5.85,5.85,0,0,0-1.13-.11c-1.64,0-3,.64-3.41,1.5a1.68,1.68,0,0,0-.16.71,1.66,1.66,0,0,0,.63,1.31l-.59,1-.32-.25Z"/><path class="cls-32" d="M42.62,40.49a2.5,2.5,0,0,0-.94,1A2,2,0,0,0,42,43.73l-.36.59a2.44,2.44,0,0,1-.55-1.51A2.78,2.78,0,0,1,42.62,40.49Z"/><path class="cls-32" d="M52.78,38.42a.83.83,0,0,1,.82.61,8.06,8.06,0,0,1,.09,1v.12s0,.09,0,.14A6.08,6.08,0,0,0,54,42.24l-1.2,1.16-1.22-1.16a6.34,6.34,0,0,0,.29-1.91s0-.1,0-.14,0-.08,0-.12a8.06,8.06,0,0,1,.09-1A.86.86,0,0,1,52.78,38.42Z"/><path class="cls-32" d="M52.78,38.79a.42.42,0,0,1,.42.32,7.12,7.12,0,0,1,.09,1v.11a.53.53,0,0,0,0,.13,5.52,5.52,0,0,0,.27,1.81l-.8.76-.8-.76a5.76,5.76,0,0,0,.28-1.81s0-.08,0-.13,0-.07,0-.11a7.12,7.12,0,0,1,.09-1A.44.44,0,0,1,52.78,38.79Z"/><path class="cls-32" d="M58.33,43,58,43.2l-.46-.76A1.74,1.74,0,0,0,58.4,41a1.27,1.27,0,0,0,0-.2c0-1-1.24-1.79-2.75-1.79a3.6,3.6,0,0,0-2,.56c0-.15,0-.28,0-.42a4,4,0,0,1,2-.51c1.74,0,3.1,1,3.16,2.16a1.27,1.27,0,0,1,0,.2,2.06,2.06,0,0,1-.73,1.57Z"/><path class="cls-5" d="M58.31,43a2.16,2.16,0,0,0,1-1.7A2.3,2.3,0,0,0,58,39.36a2,2,0,0,1,.79,1.41,1.27,1.27,0,0,1,0,.2,2.06,2.06,0,0,1-.73,1.57Zm0,0Z"/><path class="cls-30" d="M58.31,43a2.16,2.16,0,0,0,1-1.7A2.3,2.3,0,0,0,58,39.36a2,2,0,0,1,.79,1.41,1.27,1.27,0,0,1,0,.2,2.06,2.06,0,0,1-.73,1.57Zm0,0Z"/><path class="cls-32" d="M63.53,43.73a2.06,2.06,0,0,0,.53-1.38,2,2,0,0,0-.2-.88c-.48-1-2-1.71-3.77-1.71a6.71,6.71,0,0,0-1.38.15,2.62,2.62,0,0,1,.24.34,6,6,0,0,1,1.14-.11c1.64,0,3,.64,3.4,1.5a1.54,1.54,0,0,1,.16.71A1.68,1.68,0,0,1,63,43.66l.59,1,.32-.25Z"/><path class="cls-32" d="M62.92,40.49a2.5,2.5,0,0,1,.94,1,2,2,0,0,1,.2.88,2.06,2.06,0,0,1-.53,1.38l.36.59a2.49,2.49,0,0,0,.54-1.51A2.78,2.78,0,0,0,62.92,40.49Z"/><path class="cls-28" d="M53.78,37.53a1,1,0,1,0-1,.94A1,1,0,0,0,53.78,37.53Z"/><path class="cls-4" d="M52.52,34.88v.51H52v.51h.55v1.49h-.69s0,.09,0,.14a.86.86,0,0,0,.08.36H53.7a.86.86,0,0,0,.08-.36c0-.05,0-.09-.05-.14h-.66V35.9h.54v-.51h-.54v-.51Z"/><path class="cls-29" d="M53.21,42.39a.42.42,0,0,0-.43-.4.41.41,0,1,0,0,.81A.42.42,0,0,0,53.21,42.39Z"/><path class="cls-29" d="M53.21,41.6a.42.42,0,0,0-.43-.41.41.41,0,1,0,0,.81A.42.42,0,0,0,53.21,41.6Z"/><path class="cls-29" d="M53.12,40.74a.34.34,0,0,0-.68,0,.34.34,0,0,0,.68,0Z"/><path class="cls-29" d="M53,40a.23.23,0,0,0-.24-.23.24.24,0,0,0-.25.23A.25.25,0,0,0,53,40Z"/><path class="cls-29" d="M53,39.3a.19.19,0,0,0-.19-.19.2.2,0,0,0-.2.19.19.19,0,0,0,.2.18A.18.18,0,0,0,53,39.3Z"/><path class="cls-29" d="M41.53,44.58a.25.25,0,0,0-.5,0,.25.25,0,0,0,.5,0Z"/><path class="cls-29" d="M41.19,44a.25.25,0,0,0-.25-.24.25.25,0,0,0-.25.24.24.24,0,0,0,.25.23A.24.24,0,0,0,41.19,44Z"/><path class="cls-29" d="M41,43.29a.23.23,0,0,0-.24-.23.24.24,0,0,0-.25.23.25.25,0,0,0,.49,0Z"/><path class="cls-29" d="M40.94,42.55a.24.24,0,0,0-.25-.23.24.24,0,0,0-.25.23.25.25,0,0,0,.25.24A.25.25,0,0,0,40.94,42.55Z"/><path class="cls-29" d="M41.12,41.82a.25.25,0,0,0-.5,0,.25.25,0,0,0,.5,0Z"/><path class="cls-29" d="M41.5,41.16a.25.25,0,0,0-.5,0,.25.25,0,0,0,.5,0Z"/><path class="cls-29" d="M42,40.61a.23.23,0,0,0-.24-.23.24.24,0,0,0-.25.23.25.25,0,0,0,.49,0Z"/><path class="cls-29" d="M42.59,40.16a.23.23,0,0,0-.24-.23.23.23,0,1,0,0,.46A.23.23,0,0,0,42.59,40.16Z"/><path class="cls-29" d="M43.3,39.79a.25.25,0,0,0-.25-.24.25.25,0,0,0-.25.24.24.24,0,0,0,.25.23A.24.24,0,0,0,43.3,39.79Z"/><path class="cls-29" d="M44,39.53a.25.25,0,0,0-.25-.24.24.24,0,1,0,0,.47A.25.25,0,0,0,44,39.53Z"/><path class="cls-29" d="M44.84,39.38a.25.25,0,0,0-.25-.24.25.25,0,0,0-.25.24.24.24,0,0,0,.25.23A.24.24,0,0,0,44.84,39.38Z"/><path class="cls-29" d="M45.61,39.34a.23.23,0,0,0-.24-.23.23.23,0,1,0,0,.46A.23.23,0,0,0,45.61,39.34Z"/><path class="cls-29" d="M46.37,39.37a.25.25,0,0,0-.49,0,.24.24,0,0,0,.24.23A.24.24,0,0,0,46.37,39.37Z"/><path class="cls-29" d="M47.21,42.7a.24.24,0,0,0-.24-.23.24.24,0,1,0,.24.23Z"/><path class="cls-29" d="M46.79,42.1a.23.23,0,0,0-.24-.23.24.24,0,0,0-.25.23.25.25,0,0,0,.49,0Z"/><path class="cls-29" d="M46.57,41.45a.25.25,0,1,0-.25.23A.24.24,0,0,0,46.57,41.45Z"/><path class="cls-29" d="M46.6,40.74a.25.25,0,1,0-.25.23A.25.25,0,0,0,46.6,40.74Z"/><path class="cls-29" d="M46.75,40a.25.25,0,0,0-.49,0,.24.24,0,0,0,.24.23A.24.24,0,0,0,46.75,40Z"/><path class="cls-29" d="M47.13,39.37a.25.25,0,0,0-.25-.24.24.24,0,1,0,0,.47A.24.24,0,0,0,47.13,39.37Z"/><path class="cls-29" d="M47.71,38.91a.24.24,0,0,0-.25-.23.24.24,0,0,0-.25.23.25.25,0,0,0,.25.24A.25.25,0,0,0,47.71,38.91Z"/><path class="cls-29" d="M48.38,38.54a.25.25,0,0,0-.5,0,.25.25,0,0,0,.5,0Z"/><path class="cls-29" d="M49.12,38.32a.25.25,0,0,0-.49,0,.24.24,0,0,0,.25.23A.23.23,0,0,0,49.12,38.32Z"/><ellipse class="cls-34" cx="49.65" cy="38.18" rx="0.25" ry="0.23"/><path class="cls-29" d="M50.65,38.2a.25.25,0,1,0-.24.23A.24.24,0,0,0,50.65,38.2Z"/><path class="cls-29" d="M51.44,38.33a.25.25,0,0,0-.5,0,.25.25,0,0,0,.5,0Z"/><path class="cls-29" d="M52.17,38.58a.25.25,0,1,0-.25.23A.24.24,0,0,0,52.17,38.58Z"/><path class="cls-29" d="M53.87,38.58a.24.24,0,0,0-.25-.23.23.23,0,1,0,0,.46A.24.24,0,0,0,53.87,38.58Z"/><path class="cls-29" d="M54.6,38.33a.25.25,0,0,0-.25-.24.25.25,0,0,0-.25.24.24.24,0,0,0,.25.23A.24.24,0,0,0,54.6,38.33Z"/><path class="cls-29" d="M55.39,38.2a.25.25,0,1,0-.25.23A.25.25,0,0,0,55.39,38.2Z"/><path class="cls-29" d="M56.14,38.18A.24.24,0,0,0,55.9,38a.24.24,0,1,0,.24.23Z"/><path class="cls-29" d="M56.92,38.32a.25.25,0,0,0-.5,0,.25.25,0,0,0,.5,0Z"/><path class="cls-29" d="M57.66,38.54a.25.25,0,0,0-.25-.24.25.25,0,0,0-.25.24.24.24,0,0,0,.25.23A.24.24,0,0,0,57.66,38.54Z"/><path class="cls-29" d="M58.34,38.91a.24.24,0,0,0-.25-.23.24.24,0,0,0-.25.23.25.25,0,0,0,.25.24A.25.25,0,0,0,58.34,38.91Z"/><path class="cls-29" d="M58.91,39.37a.25.25,0,0,0-.25-.24.24.24,0,1,0,0,.47A.24.24,0,0,0,58.91,39.37Z"/><path class="cls-29" d="M59.29,40a.25.25,0,0,0-.25-.24.24.24,0,1,0,0,.47A.24.24,0,0,0,59.29,40Z"/><path class="cls-29" d="M59.44,40.74a.25.25,0,1,0-.24.23A.24.24,0,0,0,59.44,40.74Z"/><path class="cls-29" d="M59.47,41.45a.24.24,0,0,0-.25-.23.23.23,0,1,0,0,.46A.24.24,0,0,0,59.47,41.45Z"/><path class="cls-29" d="M59.25,42.1a.24.24,0,0,0-.25-.23.24.24,0,0,0-.25.23.25.25,0,0,0,.25.24A.25.25,0,0,0,59.25,42.1Z"/><path class="cls-29" d="M58.83,42.7a.25.25,0,1,0-.25.24A.24.24,0,0,0,58.83,42.7Z"/><ellipse class="cls-34" cx="59.42" cy="39.37" rx="0.25" ry="0.23"/><path class="cls-29" d="M60.43,39.34a.25.25,0,1,0-.25.23A.24.24,0,0,0,60.43,39.34Z"/><path class="cls-29" d="M61.2,39.38a.25.25,0,0,0-.49,0,.23.23,0,0,0,.24.23A.24.24,0,0,0,61.2,39.38Z"/><path class="cls-29" d="M62,39.53a.25.25,0,0,0-.25-.24.24.24,0,1,0,0,.47A.25.25,0,0,0,62,39.53Z"/><path class="cls-29" d="M62.74,39.79a.25.25,0,0,0-.49,0,.24.24,0,0,0,.25.23A.23.23,0,0,0,62.74,39.79Z"/><path class="cls-29" d="M63.45,40.16a.25.25,0,1,0-.25.23A.24.24,0,0,0,63.45,40.16Z"/><path class="cls-29" d="M64,40.61a.23.23,0,0,0-.24-.23.24.24,0,0,0-.25.23.25.25,0,0,0,.49,0Z"/><path class="cls-29" d="M64.54,41.16a.25.25,0,0,0-.49,0,.23.23,0,0,0,.24.23A.24.24,0,0,0,64.54,41.16Z"/><path class="cls-29" d="M64.92,41.82a.24.24,0,0,0-.25-.23.23.23,0,0,0-.24.23.25.25,0,0,0,.49,0Z"/><path class="cls-29" d="M65.1,42.55a.23.23,0,0,0-.24-.23.24.24,0,0,0-.25.23.25.25,0,0,0,.49,0Z"/><path class="cls-29" d="M65.08,43.29a.24.24,0,0,0-.25-.23.24.24,0,0,0-.25.23.25.25,0,0,0,.25.24A.25.25,0,0,0,65.08,43.29Z"/><path class="cls-29" d="M64.85,44a.25.25,0,0,0-.49,0,.23.23,0,0,0,.24.23A.24.24,0,0,0,64.85,44Z"/><path class="cls-29" d="M64.51,44.58a.23.23,0,0,0-.24-.23.24.24,0,0,0-.25.23.25.25,0,0,0,.49,0Z"/><path class="cls-32" d="M52.8,50.77a25.38,25.38,0,0,1-7-.86.27.27,0,0,1-.19-.28.26.26,0,0,1,.19-.26,25.38,25.38,0,0,1,7-.86,25.51,25.51,0,0,1,7,.86.25.25,0,0,1,.18.26.27.27,0,0,1-.18.28A25.51,25.51,0,0,1,52.8,50.77Z"/><path class="cls-31" d="M52.78,48.5a25.66,25.66,0,0,0-7.06.9c.15-.07.13-.25,0-.72s-.56-.54-.56-.54a28.15,28.15,0,0,1,7.68-.94,28.47,28.47,0,0,1,7.72.94s-.35,0-.57.54-.19.65,0,.72A25.94,25.94,0,0,0,52.78,48.5Z"/><path class="cls-5" d="M52.8,47.2a28.18,28.18,0,0,0-7.69.94A.24.24,0,0,1,44.8,48,.25.25,0,0,1,45,47.7a28.07,28.07,0,0,1,7.83-1,28.25,28.25,0,0,1,7.86,1,.25.25,0,0,1,.16.31.24.24,0,0,1-.31.13A28.36,28.36,0,0,0,52.8,47.2Zm0,0Z"/><path class="cls-30" d="M52.8,47.2a28.18,28.18,0,0,0-7.69.94A.24.24,0,0,1,44.8,48,.25.25,0,0,1,45,47.7a28.07,28.07,0,0,1,7.83-1,28.25,28.25,0,0,1,7.86,1,.25.25,0,0,1,.16.31.24.24,0,0,1-.31.13A28.36,28.36,0,0,0,52.8,47.2Zm0,0Z"/><path class="cls-5" d="M52.81,44.83l.28.05a1.11,1.11,0,0,0-.05.37,1.07,1.07,0,0,0,1.1,1,1.1,1.1,0,0,0,1-.73s.11-.37.16-.37,0,.4,0,.4a1.07,1.07,0,0,0,1.09.88,1.08,1.08,0,0,0,1.11-1s0-.09,0-.13l.35-.35.18.44a1,1,0,0,0-.1.46,1,1,0,0,0,1,1,1.07,1.07,0,0,0,.88-.45l.22-.28v.35c0,.35.15.66.49.71a1.41,1.41,0,0,0,.9-.38,5.33,5.33,0,0,0,.8-.74l0,.41a3.42,3.42,0,0,1-.9.93,1.58,1.58,0,0,1-.95.25.9.9,0,0,1-.67-.61,1.68,1.68,0,0,1-.8.22,1.54,1.54,0,0,1-1.43-.87,1.57,1.57,0,0,1-1.17.5,1.63,1.63,0,0,1-1.25-.57,1.64,1.64,0,0,1-2.43-.27,1.65,1.65,0,0,1-2.44.27,1.61,1.61,0,0,1-1.25.57A1.57,1.57,0,0,1,48,46.4a1.53,1.53,0,0,1-1.42.87,1.62,1.62,0,0,1-.8-.22.91.91,0,0,1-.68.61,1.62,1.62,0,0,1-.95-.25,3.42,3.42,0,0,1-.9-.93l0-.41a6,6,0,0,0,.8.74,1.45,1.45,0,0,0,.91.38c.34,0,.48-.36.48-.71v-.35l.22.28a1.08,1.08,0,0,0,.88.45,1,1,0,0,0,1.05-1,.89.89,0,0,0-.1-.46l.19-.44.35.35a.53.53,0,0,0,0,.13,1.11,1.11,0,0,0,2.2.16s0-.4.05-.4.13.38.15.37a1.1,1.1,0,0,0,1,.73,1.08,1.08,0,0,0,1.11-1,.9.9,0,0,0-.06-.37Zm0,0Z"/><path class="cls-30" d="M52.81,44.83l.28.05a1.11,1.11,0,0,0-.05.37,1.07,1.07,0,0,0,1.1,1,1.1,1.1,0,0,0,1-.73s.11-.37.16-.37,0,.4,0,.4a1.07,1.07,0,0,0,1.09.88,1.08,1.08,0,0,0,1.11-1s0-.09,0-.13l.35-.35.18.44a1,1,0,0,0-.1.46,1,1,0,0,0,1,1,1.07,1.07,0,0,0,.88-.45l.22-.28v.35c0,.35.15.66.49.71a1.41,1.41,0,0,0,.9-.38,5.33,5.33,0,0,0,.8-.74l0,.41a3.42,3.42,0,0,1-.9.93,1.58,1.58,0,0,1-.95.25.9.9,0,0,1-.67-.61,1.68,1.68,0,0,1-.8.22,1.54,1.54,0,0,1-1.43-.87,1.57,1.57,0,0,1-1.17.5,1.63,1.63,0,0,1-1.25-.57,1.64,1.64,0,0,1-2.43-.27,1.65,1.65,0,0,1-2.44.27,1.61,1.61,0,0,1-1.25.57A1.57,1.57,0,0,1,48,46.4a1.53,1.53,0,0,1-1.42.87,1.62,1.62,0,0,1-.8-.22.91.91,0,0,1-.68.61,1.62,1.62,0,0,1-.95-.25,3.42,3.42,0,0,1-.9-.93l0-.41a6,6,0,0,0,.8.74,1.45,1.45,0,0,0,.91.38c.34,0,.48-.36.48-.71v-.35l.22.28a1.08,1.08,0,0,0,.88.45,1,1,0,0,0,1.05-1,.89.89,0,0,0-.1-.46l.19-.44.35.35a.53.53,0,0,0,0,.13,1.11,1.11,0,0,0,2.2.16s0-.4.05-.4.13.38.15.37a1.1,1.1,0,0,0,1,.73,1.08,1.08,0,0,0,1.11-1,.9.9,0,0,0-.06-.37Zm0,0Z"/><path class="cls-5" d="M43.4,46.3a.48.48,0,0,0-.16-.23.4.4,0,0,0-.53-.06s0,0,0,.06a1.85,1.85,0,0,0-.54-.63,1.72,1.72,0,0,0-.79-.12.66.66,0,0,1,.68-.65.72.72,0,0,1,.55.25l0-.24a.66.66,0,0,1,.45.41,1.59,1.59,0,0,1,0,.86,1.34,1.34,0,0,1,.19-.37,1.88,1.88,0,0,1,.56-.37,2.56,2.56,0,0,0,.31-.18s0,0,0,.14a.94.94,0,0,1,0,.19,1.94,1.94,0,0,1,.86.1,1.09,1.09,0,0,1-.59.52l.19.17.09.11-.28,0a2.62,2.62,0,0,1-.61.05A2,2,0,0,1,43.4,46.3Zm0,0Z"/><path class="cls-30" d="M43.4,46.3a.48.48,0,0,0-.16-.23.4.4,0,0,0-.53-.06s0,0,0,.06a1.85,1.85,0,0,0-.54-.63,1.72,1.72,0,0,0-.79-.12.66.66,0,0,1,.68-.65.72.72,0,0,1,.55.25l0-.24a.66.66,0,0,1,.45.41,1.59,1.59,0,0,1,0,.86,1.34,1.34,0,0,1,.19-.37,1.88,1.88,0,0,1,.56-.37,2.56,2.56,0,0,0,.31-.18s0,0,0,.14a.94.94,0,0,1,0,.19,1.94,1.94,0,0,1,.86.1,1.09,1.09,0,0,1-.59.52l.19.17.09.11-.28,0a2.62,2.62,0,0,1-.61.05A2,2,0,0,1,43.4,46.3Zm0,0Z"/><path class="cls-3" d="M42.71,46a.4.4,0,0,1,.53.06c.18.15.23.37.11.49s-.35.09-.53-.06S42.59,46.13,42.71,46Z"/><path class="cls-40" d="M45.21,46.21c-.07-.19,0-.37.12-.41a.32.32,0,0,1,.36.26.32.32,0,0,1-.12.42C45.43,46.52,45.27,46.4,45.21,46.21Zm0,0Z"/><path class="cls-30" d="M45.21,46.21c-.07-.19,0-.37.12-.41a.32.32,0,0,1,.36.26.32.32,0,0,1-.12.42C45.43,46.52,45.27,46.4,45.21,46.21Zm0,0Z"/><path class="cls-5" d="M47.4,45.3a.4.4,0,0,1-.16-.24.45.45,0,0,1,.06-.28,2.12,2.12,0,0,0-.42-.15,2.17,2.17,0,0,0-.53-.05h-.26l.07.13.11.17a1.12,1.12,0,0,0-.68.47,1.3,1.3,0,0,0,.81.22.91.91,0,0,0,0,.19c0,.1,0,.14,0,.14l.24-.09a3.11,3.11,0,0,0,.48-.22A2.57,2.57,0,0,0,47.4,45.3Zm0,0Z"/><path class="cls-30" d="M47.4,45.3a.4.4,0,0,1-.16-.24.45.45,0,0,1,.06-.28,2.12,2.12,0,0,0-.42-.15,2.17,2.17,0,0,0-.53-.05h-.26l.07.13.11.17a1.12,1.12,0,0,0-.68.47,1.3,1.3,0,0,0,.81.22.91.91,0,0,0,0,.19c0,.1,0,.14,0,.14l.24-.09a3.11,3.11,0,0,0,.48-.22A2.57,2.57,0,0,0,47.4,45.3Zm0,0Z"/><path class="cls-32" d="M47.3,43a1.19,1.19,0,0,1,.51.69.43.43,0,0,1,.16-.14.62.62,0,0,1,.25-.07s0,.22-.06.3,0,.31-.07.52a1.8,1.8,0,0,1-.14.38.45.45,0,0,0-.36-.1.42.42,0,0,0-.29.21,2,2,0,0,1-.28-.31c-.12-.19-.21-.4-.25-.47s-.16-.26-.16-.26a.47.47,0,0,1,.25,0,.51.51,0,0,1,.2.07A1.16,1.16,0,0,1,47.3,43Z"/><path class="cls-5" d="M48,45.2a.39.39,0,0,0,.05-.28.41.41,0,0,0-.15-.25,3.08,3.08,0,0,1,.33-.28,3,3,0,0,1,.49-.21l.24-.09a.84.84,0,0,1,0,.14.8.8,0,0,1,0,.19,1.26,1.26,0,0,1,.81.22,1.19,1.19,0,0,1-.68.47,1.15,1.15,0,0,1,.11.17.49.49,0,0,1,.06.12H49a2.89,2.89,0,0,1-.53,0A3.46,3.46,0,0,1,48,45.2Zm0,0Z"/><path class="cls-30" d="M48,45.2a.39.39,0,0,0,.05-.28.41.41,0,0,0-.15-.25,3.08,3.08,0,0,1,.33-.28,3,3,0,0,1,.49-.21l.24-.09a.84.84,0,0,1,0,.14.8.8,0,0,1,0,.19,1.26,1.26,0,0,1,.81.22,1.19,1.19,0,0,1-.68.47,1.15,1.15,0,0,1,.11.17.49.49,0,0,1,.06.12H49a2.89,2.89,0,0,1-.53,0A3.46,3.46,0,0,1,48,45.2Zm0,0Z"/><path class="cls-3" d="M48.17,45a.49.49,0,1,0-.49.47A.48.48,0,0,0,48.17,45Z"/><path class="cls-29" d="M50,45.28c0-.19.07-.37.21-.38s.28.13.3.32-.06.37-.2.38S50,45.48,50,45.28Z"/><path class="cls-5" d="M52.43,44.85a.5.5,0,0,1-.12-.31.4.4,0,0,1,.12-.29A2.44,2.44,0,0,0,52,44a2.48,2.48,0,0,0-.58-.15l-.29-.06s0,.05,0,.15.09.21.09.21a1.31,1.31,0,0,0-.85.4,1.35,1.35,0,0,0,.85.39s0,.08-.09.21,0,.15,0,.15l.29,0A4.17,4.17,0,0,0,52,45.1,3.44,3.44,0,0,0,52.43,44.85Zm0,0Z"/><path class="cls-30" d="M52.43,44.85a.5.5,0,0,1-.12-.31.4.4,0,0,1,.12-.29A2.44,2.44,0,0,0,52,44a2.48,2.48,0,0,0-.58-.15l-.29-.06s0,.05,0,.15.09.21.09.21a1.31,1.31,0,0,0-.85.4,1.35,1.35,0,0,0,.85.39s0,.08-.09.21,0,.15,0,.15l.29,0A4.17,4.17,0,0,0,52,45.1,3.44,3.44,0,0,0,52.43,44.85Zm0,0Z"/><path class="cls-5" d="M52.79,42.26a1.31,1.31,0,0,1,.44.86.43.43,0,0,1,.21-.12.66.66,0,0,1,.28,0s-.08.23-.12.32-.09.34-.19.57a2.25,2.25,0,0,1-.23.39.51.51,0,0,0-.76,0,2.25,2.25,0,0,1-.23-.39c-.1-.23-.15-.49-.19-.57L51.87,43a.71.71,0,0,1,.29,0,.53.53,0,0,1,.21.12A1.33,1.33,0,0,1,52.79,42.26Zm0,0Z"/><path class="cls-30" d="M52.79,42.26a1.31,1.31,0,0,1,.44.86.43.43,0,0,1,.21-.12.66.66,0,0,1,.28,0s-.08.23-.12.32-.09.34-.19.57a2.25,2.25,0,0,1-.23.39.51.51,0,0,0-.76,0,2.25,2.25,0,0,1-.23-.39c-.1-.23-.15-.49-.19-.57L51.87,43a.71.71,0,0,1,.29,0,.53.53,0,0,1,.21.12A1.33,1.33,0,0,1,52.79,42.26Zm0,0Z"/><path class="cls-5" d="M53.16,44.85a.45.45,0,0,0,.12-.31.44.44,0,0,0-.11-.29A2.44,2.44,0,0,1,53.6,44a2.36,2.36,0,0,1,.58-.15l.28-.06a.46.46,0,0,1,0,.15,1,1,0,0,1-.09.21,1.36,1.36,0,0,1,.86.4,1.4,1.4,0,0,1-.86.39,1,1,0,0,1,.09.21.46.46,0,0,1,0,.15l-.28,0a3.84,3.84,0,0,1-.58-.15A4.08,4.08,0,0,1,53.16,44.85Zm0,0Z"/><path class="cls-30" d="M53.16,44.85a.45.45,0,0,0,.12-.31.44.44,0,0,0-.11-.29A2.44,2.44,0,0,1,53.6,44a2.36,2.36,0,0,1,.58-.15l.28-.06a.46.46,0,0,1,0,.15,1,1,0,0,1-.09.21,1.36,1.36,0,0,1,.86.4,1.4,1.4,0,0,1-.86.39,1,1,0,0,1,.09.21.46.46,0,0,1,0,.15l-.28,0a3.84,3.84,0,0,1-.58-.15A4.08,4.08,0,0,1,53.16,44.85Zm0,0Z"/><path class="cls-3" d="M53.29,44.54a.49.49,0,1,0-.49.47A.48.48,0,0,0,53.29,44.54Z"/><path class="cls-29" d="M55.6,45.28c0-.19-.07-.37-.21-.38s-.28.13-.3.32.07.37.21.38S55.57,45.48,55.6,45.28Z"/><path class="cls-5" d="M57.58,45.2a.45.45,0,0,1-.06-.28.46.46,0,0,1,.15-.25,3.08,3.08,0,0,0-.33-.28,2.93,2.93,0,0,0-.48-.21l-.24-.09s0,0,0,.14,0,.19,0,.19a1.23,1.23,0,0,0-.8.22,1.16,1.16,0,0,0,.68.47.62.62,0,0,0-.11.17l-.07.12h.26a2.89,2.89,0,0,0,.53,0A3.24,3.24,0,0,0,57.58,45.2Zm0,0Z"/><path class="cls-30" d="M57.58,45.2a.45.45,0,0,1-.06-.28.46.46,0,0,1,.15-.25,3.08,3.08,0,0,0-.33-.28,2.93,2.93,0,0,0-.48-.21l-.24-.09s0,0,0,.14,0,.19,0,.19a1.23,1.23,0,0,0-.8.22,1.16,1.16,0,0,0,.68.47.62.62,0,0,0-.11.17l-.07.12h.26a2.89,2.89,0,0,0,.53,0A3.24,3.24,0,0,0,57.58,45.2Zm0,0Z"/><path class="cls-5" d="M58.32,43a1.2,1.2,0,0,0-.52.69.43.43,0,0,0-.16-.14.58.58,0,0,0-.25-.07s0,.22.06.3,0,.31.07.52a1.55,1.55,0,0,0,.15.38.43.43,0,0,1,.35-.1.44.44,0,0,1,.3.21,1.73,1.73,0,0,0,.27-.31c.12-.19.21-.4.25-.47l.17-.26a.52.52,0,0,0-.26,0,.51.51,0,0,0-.2.07A1.16,1.16,0,0,0,58.32,43Zm0,0Z"/><path class="cls-30" d="M58.32,43a1.2,1.2,0,0,0-.52.69.43.43,0,0,0-.16-.14.58.58,0,0,0-.25-.07s0,.22.06.3,0,.31.07.52a1.55,1.55,0,0,0,.15.38.43.43,0,0,1,.35-.1.44.44,0,0,1,.3.21,1.73,1.73,0,0,0,.27-.31c.12-.19.21-.4.25-.47l.17-.26a.52.52,0,0,0-.26,0,.51.51,0,0,0-.2.07A1.16,1.16,0,0,0,58.32,43Zm0,0Z"/><path class="cls-5" d="M58.22,45.3a.43.43,0,0,0,.15-.24.39.39,0,0,0,0-.28,2.19,2.19,0,0,1,.41-.15,2.21,2.21,0,0,1,.53-.05h.26a.63.63,0,0,1-.06.13l-.11.17a1.18,1.18,0,0,1,.68.47,1.32,1.32,0,0,1-.81.22,1.9,1.9,0,0,1,0,.19.84.84,0,0,1,0,.14L59,45.8a3.16,3.16,0,0,1-.49-.22A2.16,2.16,0,0,1,58.22,45.3Zm0,0Z"/><path class="cls-30" d="M58.22,45.3a.43.43,0,0,0,.15-.24.39.39,0,0,0,0-.28,2.19,2.19,0,0,1,.41-.15,2.21,2.21,0,0,1,.53-.05h.26a.63.63,0,0,1-.06.13l-.11.17a1.18,1.18,0,0,1,.68.47,1.32,1.32,0,0,1-.81.22,1.9,1.9,0,0,1,0,.19.84.84,0,0,1,0,.14L59,45.8a3.16,3.16,0,0,1-.49-.22A2.16,2.16,0,0,1,58.22,45.3Zm0,0Z"/><path class="cls-3" d="M58.43,45a.49.49,0,1,0-.49.47A.48.48,0,0,0,58.43,45Z"/><path class="cls-40" d="M60.41,46.21c.06-.19,0-.37-.13-.41a.33.33,0,0,0-.36.26c-.06.19,0,.37.13.42S60.34,46.4,60.41,46.21Zm0,0Z"/><path class="cls-30" d="M60.41,46.21c.06-.19,0-.37-.13-.41a.33.33,0,0,0-.36.26c-.06.19,0,.37.13.42S60.34,46.4,60.41,46.21Zm0,0Z"/><path class="cls-5" d="M62.21,46.3a.57.57,0,0,1,.16-.23A.4.4,0,0,1,62.9,46a.08.08,0,0,1,0,.06,1.85,1.85,0,0,1,.54-.63,1.74,1.74,0,0,1,.79-.12.65.65,0,0,0-.67-.65.74.74,0,0,0-.56.25l0-.24a.66.66,0,0,0-.45.41,1.55,1.55,0,0,0,0,.86,1.76,1.76,0,0,0-.19-.37,2,2,0,0,0-.56-.37A1.88,1.88,0,0,1,61.5,45a1.13,1.13,0,0,0,0,.14,1.49,1.49,0,0,0,0,.19,1.91,1.91,0,0,0-.86.1,1,1,0,0,0,.58.52l-.18.17-.1.11.29,0a2.48,2.48,0,0,0,.6.05A2,2,0,0,0,62.21,46.3Zm0,0Z"/><path class="cls-30" d="M62.21,46.3a.57.57,0,0,1,.16-.23A.4.4,0,0,1,62.9,46a.08.08,0,0,1,0,.06,1.85,1.85,0,0,1,.54-.63,1.74,1.74,0,0,1,.79-.12.65.65,0,0,0-.67-.65.74.74,0,0,0-.56.25l0-.24a.66.66,0,0,0-.45.41,1.55,1.55,0,0,0,0,.86,1.76,1.76,0,0,0-.19-.37,2,2,0,0,0-.56-.37A1.88,1.88,0,0,1,61.5,45a1.13,1.13,0,0,0,0,.14,1.49,1.49,0,0,0,0,.19,1.91,1.91,0,0,0-.86.1,1,1,0,0,0,.58.52l-.18.17-.1.11.29,0a2.48,2.48,0,0,0,.6.05A2,2,0,0,0,62.21,46.3Zm0,0Z"/><path class="cls-3" d="M62.9,46a.4.4,0,0,0-.53.06c-.17.15-.23.37-.11.49s.35.09.53-.06S63,46.13,62.9,46Z"/><path class="cls-3" d="M52.79,50.41a26.73,26.73,0,0,1-6.45-.73A26.28,26.28,0,0,1,52.79,49a26.34,26.34,0,0,1,6.47.72A26.78,26.78,0,0,1,52.79,50.41Z"/><path class="cls-16" d="M54.58,50.34v0Zm-.68,0v0Zm-.5,0v0Z"/><path class="cls-20" d="M53,50.43v0Z"/><path class="cls-25" d="M52.58,50.43v0Z"/><path class="cls-27" d="M52.2,50.43v0Z"/><path class="cls-41" d="M51.83,50.43v0Z"/><path class="cls-42" d="M51.49,50.43v0Z"/><path class="cls-43" d="M50.85,50.34v0Zm.31,0v0Z"/><path class="cls-44" d="M50.26,50.28v0Zm.3,0v0Z"/><path class="cls-45" d="M49.47,50.22v0Zm.26,0v0Zm.27,0v0Z"/><path class="cls-46" d="M49.2,50.21v0Z"/><path class="cls-47" d="M48.94,50.15v0Z"/><path class="cls-48" d="M48.66,50.13v0Z"/><path class="cls-49" d="M48.09,50.05v0Zm.29,0v0Z"/><path class="cls-50" d="M47.8,50v0Z"/><path class="cls-51" d="M47.54,49.93v0Z"/><path class="cls-52" d="M47.24,49.86v0Z"/><path class="cls-53" d="M47,49.83v0Z"/><path class="cls-54" d="M46.63,49.76v0Z"/><polygon class="cls-3" points="45.28 48.74 45.55 48.39 46.31 48.48 45.71 48.92 45.28 48.74"/><path class="cls-29" d="M46.92,48.32a.24.24,0,0,1,.25-.23.23.23,0,1,1,0,.46A.24.24,0,0,1,46.92,48.32Z"/><path class="cls-9" d="M49.09,48.27l-.53.06a.23.23,0,1,1-.07-.46l.54-.06.54-.06a.23.23,0,0,1,.27.2.24.24,0,0,1-.21.26Zm0,0Z"/><path class="cls-30" d="M49.09,48.27l-.53.06a.23.23,0,1,1-.07-.46l.54-.06.54-.06a.23.23,0,0,1,.27.2.24.24,0,0,1-.21.26Zm0,0Z"/><path class="cls-29" d="M50.64,47.89a.25.25,0,0,1,.49,0,.24.24,0,0,1-.24.23A.24.24,0,0,1,50.64,47.89Z"/><path class="cls-3" d="M52.8,48.07h-.74a.24.24,0,1,1,0-.47h1.49a.25.25,0,0,1,.25.24.24.24,0,0,1-.25.23Z"/><path class="cls-29" d="M54.47,47.89a.25.25,0,0,1,.25-.24.24.24,0,1,1,0,.47A.24.24,0,0,1,54.47,47.89Z"/><path class="cls-9" d="M56.52,48.27l.53.06a.25.25,0,0,0,.28-.2.24.24,0,0,0-.22-.26l-.53-.06L56,47.75a.23.23,0,0,0-.27.2.24.24,0,0,0,.21.26Zm0,0Z"/><path class="cls-30" d="M56.52,48.27l.53.06a.25.25,0,0,0,.28-.2.24.24,0,0,0-.22-.26l-.53-.06L56,47.75a.23.23,0,0,0-.27.2.24.24,0,0,0,.21.26Zm0,0Z"/><path class="cls-29" d="M58.18,48.32a.25.25,0,1,1,.25.23A.24.24,0,0,1,58.18,48.32Z"/><path class="cls-11" d="M60.32,48.74l-.27-.35-.76.09.61.44Zm0,0Z"/><path class="cls-30" d="M60.32,48.74l-.27-.35-.76.09.61.44Zm0,0Z"/><path class="cls-29" d="M52.88,77.36a19.26,19.26,0,0,1-8.32-1.92,5.33,5.33,0,0,1-3-4.77V63.18H64.15v7.49a5.32,5.32,0,0,1-3,4.77A19,19,0,0,1,52.88,77.36Z"/><path class="cls-55" d="M53.42,74a.92.92,0,0,1,.71.9,1.07,1.07,0,0,1-1.19.94c-.67,0-1.22-.4-1.22-.94a.81.81,0,0,1,.69-.88.45.45,0,0,0,0-.12l-.15-.14a.65.65,0,0,1,.29,0,.56.56,0,0,1,.17.11.76.76,0,0,1,.12-.17.43.43,0,0,1,.15-.12.58.58,0,0,1,.14.14l.06.13a.63.63,0,0,1,.18-.11l.18-.06a.64.64,0,0,1,0,.16A.8.8,0,0,0,53.42,74Zm0,0Z"/><path class="cls-56" d="M53.42,74a.92.92,0,0,1,.71.9,1.07,1.07,0,0,1-1.19.94c-.67,0-1.22-.4-1.22-.94a.81.81,0,0,1,.69-.88.45.45,0,0,0,0-.12l-.15-.14a.65.65,0,0,1,.29,0,.56.56,0,0,1,.17.11.76.76,0,0,1,.12-.17.43.43,0,0,1,.15-.12.58.58,0,0,1,.14.14l.06.13a.63.63,0,0,1,.18-.11l.18-.06a.64.64,0,0,1,0,.16A.8.8,0,0,0,53.42,74Zm0,0Z"/><path class="cls-57" d="M52.84,76.45a6.29,6.29,0,0,0-1.28-.68,5.88,5.88,0,0,0-1.3,0,4.44,4.44,0,0,1,.42.33,2.35,2.35,0,0,0,.77.43A2.72,2.72,0,0,0,52.84,76.45Zm0,0Z"/><path class="cls-56" d="M52.84,76.45a6.29,6.29,0,0,0-1.28-.68,5.88,5.88,0,0,0-1.3,0,4.44,4.44,0,0,1,.42.33,2.35,2.35,0,0,0,.77.43A2.72,2.72,0,0,0,52.84,76.45Zm0,0Z"/><path class="cls-57" d="M53.1,76.51a2.43,2.43,0,0,1,1.17-.68,3.29,3.29,0,0,1,1.45.13,2.69,2.69,0,0,0-.35.2,1.62,1.62,0,0,1-.93.35c-.5,0-1-.05-1.12,0Zm0,0Z"/><path class="cls-56" d="M53.1,76.51a2.43,2.43,0,0,1,1.17-.68,3.29,3.29,0,0,1,1.45.13,2.69,2.69,0,0,0-.35.2,1.62,1.62,0,0,1-.93.35c-.5,0-1-.05-1.12,0Zm0,0Z"/><path class="cls-11" d="M52.92,75.77a1.16,1.16,0,0,1-.36-.84,1.11,1.11,0,0,1,.37-.83,1.14,1.14,0,0,1,0,1.67Zm0,0Z"/><path class="cls-56" d="M52.92,75.77a1.16,1.16,0,0,1-.36-.84,1.11,1.11,0,0,1,.37-.83,1.14,1.14,0,0,1,0,1.67Zm0,0Z"/><path class="cls-57" d="M52.93,77a1.61,1.61,0,0,1-.06-.49,1.42,1.42,0,0,0-.07-.63l.12-.1.1.1s0,.32.06.54.1.51.14.68Zm0,0Z"/><path class="cls-56" d="M52.93,77a1.61,1.61,0,0,1-.06-.49,1.42,1.42,0,0,0-.07-.63l.12-.1.1.1s0,.32.06.54.1.51.14.68Zm0,0Z"/><path class="cls-11" d="M52.84,70.66a5.65,5.65,0,0,1-11.29,0v-7.5H52.84Zm0,0Z"/><path class="cls-56" d="M52.84,70.66a5.65,5.65,0,0,1-11.29,0v-7.5H52.84Zm0,0Z"/><path class="cls-58" d="M41.52,70.56a5.81,5.81,0,0,0,1.29,3.53V63H41.54Z"/><path class="cls-58" d="M44,75.08a6,6,0,0,0,1.36.63l0-12.82H44Z"/><path class="cls-58" d="M46.53,76a6.45,6.45,0,0,0,1.32,0V62.89H46.53Z"/><path class="cls-58" d="M49,75.71a4.79,4.79,0,0,0,1.35-.59V62.89H49.05Z"/><path class="cls-58" d="M51.6,74a5.12,5.12,0,0,0,1.26-2.87l0-8.2H51.57Z"/><path class="cls-3" d="M64.16,63.16v7.5a5.67,5.67,0,0,1-11.32,0v-7.5Z"/><path class="cls-59" d="M62.4,69.49a.59.59,0,0,0,.44-.55.6.6,0,0,0-.44-.56v-.91l.4-.11v-1l-.4-.12v-.91a.59.59,0,0,0,.42-.55.6.6,0,0,0-.62-.58.63.63,0,0,0-.59.4h-.69l-.12-.37H59.74l-.11.37H59a.61.61,0,0,0-.58-.4h0a.6.6,0,0,0-.57.4h-.6l-.12-.37H56.08L56,64.6h-.7a.62.62,0,0,0-.59-.4.59.59,0,0,0-.61.58.58.58,0,0,0,.41.55v.91l-.39.12v1l.39.11v.91a.59.59,0,0,0-.43.56.58.58,0,0,0,.43.55v.59l-.4.13.06,1,.23.06h.18a3.86,3.86,0,0,0,.24.82l0,0a.56.56,0,0,0,.07.82.66.66,0,0,0,.59.12,3.67,3.67,0,0,0,.56.47l-.08.41a4.63,4.63,0,0,0,1,.51l.31-.29a4.12,4.12,0,0,0,.71.19.59.59,0,0,0,.56.45h0a.6.6,0,0,0,.57-.45,4,4,0,0,0,.77-.21l0,0,.3.29a4.6,4.6,0,0,0,1-.5l-.09-.41a4.39,4.39,0,0,0,.57-.48.65.65,0,0,0,.58-.12.56.56,0,0,0,.07-.82l0,0a4.76,4.76,0,0,0,.24-.84l.4,0,.06-1-.4-.13Zm.08-.55a.25.25,0,0,1-.26.24.24.24,0,0,1-.26-.24.25.25,0,0,1,.26-.25A.26.26,0,0,1,62.48,68.94Zm-.08-2.38v.58H62v-.58ZM62,65.33H62v.9l-.4.12v1l.4.11v.92a.56.56,0,0,0-.39.37h-.72l-.12-.37H59.73l-.11.37H59l0-.09,1-1.06.38.16L61,67l-.23-.33ZM60.6,68.76v.36H60v-.36Zm-.75-1.63.4-.45.29.24-.4.44ZM60,64.6h.63V65H60Zm-1.33.74A.65.65,0,0,0,59,65h.6l.11.38H60.8l.12-.38h.69a.61.61,0,0,0,.07.14l-1.21,1.34-.38-.16-.69.77.23.32-.94,1-.06,0V67l.4-.11v-1l-.4-.11Zm-.17.74h.18v.59h-.37v-.59h.19ZM56.31,64.6h.62V65h-.62Zm-1,.36H56l.11.38h1.06l.12-.38h.6a.61.61,0,0,0,.4.38v.43l-.39.11v1l.39.11v1.39l-.06,0-.94-1,.22-.32-.69-.77-.37.16L55.2,65.1A.61.61,0,0,0,55.27,65ZM57,67.13l-.29.23-.4-.44.29-.24Zm-2.11-1.8,1.2,1.35L55.9,67l.69.76.37-.16,1,1.06a.36.36,0,0,0,0,.09h-.62l-.11-.37H56.09l-.12.37h-.72a.56.56,0,0,0-.39-.37v-.92l.39-.11v-1l-.39-.12v-.9Zm2,3.43v.36h-.64v-.36Zm-2.44-1.62v-.58h.38v.58Zm-.08,1.8a.26.26,0,0,1,.26-.25.26.26,0,0,1,.27.25.25.25,0,0,1-.27.24A.25.25,0,0,1,54.4,68.94Zm.16,2a1.67,1.67,0,0,1-.08-.32v-.27h.35v.26a3.16,3.16,0,0,0,0,.32Zm.56,1a3.1,3.1,0,0,1-.19-.66h0l.39-.12s0-.44,0-.51,0-.49,0-.49l-.4-.09v-.58a.63.63,0,0,0,.38-.37H56l.12.37h1.06l.11-.37h.63a.36.36,0,0,0,0,.11l-.9,1-.37-.16-.69.77.22.32-.74.83A.62.62,0,0,0,55.12,72Zm2-1.24-.4.44-.29-.23.4-.45ZM56.83,74a5.45,5.45,0,0,1-.53-.29l.14-.25a5.54,5.54,0,0,0,.53.3Zm1.43-.34a.61.61,0,0,0-.35.32,3.65,3.65,0,0,1-.59-.16l.07-.32a3.46,3.46,0,0,1-1-.51l-.24.23a3.5,3.5,0,0,1-.46-.39.54.54,0,0,0,0-.64l.75-.83.37.16.69-.77-.22-.32.89-1,.05,0v1.72l-.4.1v1l.4.11Zm.18-1.57h-.17v-.59h.35v.59ZM60.06,74l-.15-.26a3.92,3.92,0,0,0,.53-.29l.15.26A5.45,5.45,0,0,1,60.06,74Zm.65-.8L60.47,73a3.19,3.19,0,0,1-1,.5l.07.32A3.15,3.15,0,0,1,59,74a.61.61,0,0,0-.35-.32V72.43l.39-.11v-1l-.39-.1V69.49l0,0,.9,1-.23.32.69.77.38-.16.74.83a.54.54,0,0,0,0,.64A3.34,3.34,0,0,1,60.71,73.24Zm-.93-2.53.29-.24.4.45-.29.23Zm2.18.58a3.86,3.86,0,0,1-.2.66.58.58,0,0,0-.32,0l-.75-.83.22-.32-.68-.77-.38.16-.9-1a.37.37,0,0,0,0-.11h.62l.11.37h1.06l.12-.37h.73a.58.58,0,0,0,.38.37v.58l-.39.09s0,.44,0,.48,0,.52,0,.52l.4.12h0Zm.44-.63c0,.11,0,.22,0,.32H62c0-.1,0-.21,0-.32V70.4h.35Z"/><path class="cls-60" d="M57.85,68.94a.6.6,0,0,1,.62-.58.59.59,0,0,1,.61.58.59.59,0,0,1-.61.58A.6.6,0,0,1,57.85,68.94Z"/><rect class="cls-61" x="41.55" y="50.63" width="11.29" height="12.54"/><path class="cls-5" d="M45.42,53.52h-.21v-.2h-.36v.83h.36v.57h-.78v1.66h.42v3.33H44v1.72h6.39V59.71h-.83V56.38H50V54.72h-.78v-.57h.36v-.83h-.36v.2H49v-.2h-.37v.2h-.26v-.2H48v.83h.36v.57H47.6V52.9H48v-.83H47.6v.21h-.2v-.21H47v.21h-.21v-.21h-.41v.83h.41v1.82H46v-.57h.37v-.83H46v.2h-.2v-.2h-.42ZM44,61.43h0ZM44,61h0Zm0-.41h0Zm0-.42h0Zm0-.47h0Zm.83-.36h0Zm0-.42h0Zm0-.47h0Zm0-.41h0Zm0-.42h0Zm0-.41h0Zm0-.42h0Zm-.42-.42h0Zm0-.41h0Zm0-.42h0Zm0-.41h0Zm.78-.42h0Zm1.61-.41h0Zm0-.42h0Zm0-.42h0Zm0-.41h0Zm-.41-.52h0Zm-1.2,1.77h0Zm-.36-.52h0Zm0,7.64v0Zm0-.83v0Zm-.42,0v0Zm.78.41v0Zm.42.42v0Zm0-.83v0Zm0-.89v0Zm0-.78v0Zm-.42,1.25v0Zm-.78,0v0ZM46,59.71v0Zm.37,0v0Zm-1.2-.78v0Zm.83,0v0Zm.78,0v0Zm-.41,0v0Zm.41-.88v0Zm0-.83v0Zm-.41-.42v0Zm.41-.42v0Zm-.78,0v0Zm-.83,0v0ZM44.85,56v0Zm.78,0v0Zm.78,0v0Zm.41-.42v0Zm-.78,0v0Zm-.83,0v0Zm-.36-.41v0Zm1.56,0v0Zm-.78-.83v0Zm3.59,0h0Zm.36-.52h0Zm0,7.64v0Zm0-.83v0Zm.42,0v0Zm-.78.41v0Zm-.42.42v0Zm0-.83v0Zm0-.89v0Zm0-.78v0Zm.42,1.25v0Zm.78,0v0Zm-1.62-.47v0Zm-.36,0v0Zm1.2-.78v0Zm-.84,0v0Zm-.78,0v0Zm.42,0v0Zm-.42-.88v0Zm0-.83v0ZM48,56.8v0Zm-.42-.42v0Zm.78,0v0Zm.84,0v0Zm.36-.41v0Zm-.78,0v0ZM48,56v0Zm-.42-.42v0Zm.78,0v0Zm.84,0v0Zm.36-.41v0Zm-1.56,0v0Zm.78-.83v0Zm-1.61,4.62v0Zm0-1.71v0Zm0,.83v0Zm0-1.67v0Zm0-.83v0Zm0-1.24v0Zm0-.84v0Zm-2,.68h0Zm1.61-1.25h0Zm1.56,1.25h0Zm0,0Z"/><path class="cls-46" d="M45.42,53.52h-.21v-.2h-.36v.83h.36v.57h-.78v1.66h.42v3.33H44v1.72h6.39V59.71h-.83V56.38H50V54.72h-.78v-.57h.36v-.83h-.36v.2H49v-.2h-.37v.2h-.26v-.2H48v.83h.36v.57H47.6V52.9H48v-.83H47.6v.21h-.2v-.21H47v.21h-.21v-.21h-.41v.83h.41v1.82H46v-.57h.37v-.83H46v.2h-.2v-.2h-.42ZM44,61.43h0ZM44,61h0Zm0-.41h0Zm0-.42h0Zm0-.47h0Zm.83-.36h0Zm0-.42h0Zm0-.47h0Zm0-.41h0Zm0-.42h0Zm0-.41h0Zm0-.42h0Zm-.42-.42h0Zm0-.41h0Zm0-.42h0Zm0-.41h0Zm.78-.42h0Zm1.61-.41h0Zm0-.42h0Zm0-.42h0Zm0-.41h0Zm-.41-.52h0Zm-1.2,1.77h0Zm-.36-.52h0Zm0,7.64v0Zm0-.83v0Zm-.42,0v0Zm.78.41v0Zm.42.42v0Zm0-.83v0Zm0-.89v0Zm0-.78v0Zm-.42,1.25v0Zm-.78,0v0ZM46,59.71v0Zm.37,0v0Zm-1.2-.78v0Zm.83,0v0Zm.78,0v0Zm-.41,0v0Zm.41-.88v0Zm0-.83v0Zm-.41-.42v0Zm.41-.42v0Zm-.78,0v0Zm-.83,0v0ZM44.85,56v0Zm.78,0v0Zm.78,0v0Zm.41-.42v0Zm-.78,0v0Zm-.83,0v0Zm-.36-.41v0Zm1.56,0v0Zm-.78-.83v0Zm3.59,0h0Zm.36-.52h0Zm0,7.64v0Zm0-.83v0Zm.42,0v0Zm-.78.41v0Zm-.42.42v0Zm0-.83v0Zm0-.89v0Zm0-.78v0Zm.42,1.25v0Zm.78,0v0Zm-1.62-.47v0Zm-.36,0v0Zm1.2-.78v0Zm-.84,0v0Zm-.78,0v0Zm.42,0v0Zm-.42-.88v0Zm0-.83v0ZM48,56.8v0Zm-.42-.42v0Zm.78,0v0Zm.84,0v0Zm.36-.41v0Zm-.78,0v0ZM48,56v0Zm-.42-.42v0Zm.78,0v0Zm.84,0v0Zm.36-.41v0Zm-1.56,0v0Zm.78-.83v0Zm-1.61,4.62v0Zm0-1.71v0Zm0,.83v0Zm0-1.67v0Zm0-.83v0Zm0-1.24v0Zm0-.84v0Zm-2,.68h0Zm1.61-1.25h0Zm1.56,1.25h0Zm0,0Z"/><path class="cls-62" d="M48.28,61.43V60.34c0-.21-.1-.84-1.09-.84s-1,.63-1,.84v1.09Z"/><path class="cls-62" d="M46.51,60.39l-.52,0a.83.83,0,0,1,.21-.63l.47.37A.58.58,0,0,0,46.51,60.39Z"/><path class="cls-62" d="M47.4,59.87l.26-.47a1,1,0,0,0-.89,0l.26.47Z"/><path class="cls-62" d="M47.91,60.39l.52,0a.87.87,0,0,0-.2-.63l-.47.37A.57.57,0,0,1,47.91,60.39Z"/><path class="cls-62" d="M46.41,58.57V57.42a.58.58,0,0,0-1.15,0v1.15Z"/><path class="cls-62" d="M48,58.57V57.42a.57.57,0,0,1,1.14,0v1.15Z"/><polygon class="cls-62" points="46.04 55.76 46.09 54.72 45.11 54.72 45.21 55.76 46.04 55.76"/><polygon class="cls-62" points="47.6 55.76 47.71 54.72 46.72 54.72 46.77 55.76 47.6 55.76"/><polygon class="cls-62" points="48.38 55.76 48.28 54.72 49.32 54.72 49.22 55.76 48.38 55.76"/><path class="cls-57" d="M47.91,61.43v-.94a.64.64,0,0,0-.72-.62.64.64,0,0,0-.68.62v.94Z"/><path class="cls-9" d="M46.3,58.46v-1a.47.47,0,1,0-.93,0v1Z"/><path class="cls-9" d="M48.12,58.46v-1a.47.47,0,1,1,.94,0v1Z"/><rect class="cls-34" x="52.83" y="50.63" width="11.32" height="12.54"/><path class="cls-63" d="M58.6,53.71v-.13l0-.08a2.19,2.19,0,0,1-.55,0,1.5,1.5,0,0,1-.54-.29c-.18-.15-.25-.24-.38-.26a.88.88,0,0,0-.54.09,1.06,1.06,0,0,1,.41.29,1.18,1.18,0,0,0,.43.35,4.46,4.46,0,0,0,.73,0Z"/><path class="cls-64" d="M60.3,53.21a2.71,2.71,0,0,0,0,.31c0,.15-.06.28,0,.36a1.71,1.71,0,0,0,.07.21,1,1,0,0,1,0,.22l-.17-.13-.14-.1s0,.17,0,.24a.58.58,0,0,0,.11.28,1.32,1.32,0,0,1,.24.29,1.15,1.15,0,0,1,0,.33s-.11-.17-.2-.2a2.31,2.31,0,0,1-.28-.14.63.63,0,0,1,.18.35,1.1,1.1,0,0,1-.08.36,1.24,1.24,0,0,0-.18-.25,2,2,0,0,0-.26-.21,1.45,1.45,0,0,1,.12.44c0,.18,0,.56,0,.56a1,1,0,0,0-.18-.22,2.29,2.29,0,0,1-.23-.17.64.64,0,0,1,.12.26,2.43,2.43,0,0,0,.43,1c.21.31.54.85,1.24.67s.44-1.12.29-1.55a4.18,4.18,0,0,1-.21-1.1c0-.17.13-.67.12-.76a1.74,1.74,0,0,1,0-.74A3.79,3.79,0,0,1,61.6,53a1.38,1.38,0,0,0,.11-.3c0-.11,0-.31,0-.31s.13.24.16.32a1.29,1.29,0,0,1,0,.34.51.51,0,0,1,.22-.37,4.52,4.52,0,0,0,.48-.33l.07-.11a1.54,1.54,0,0,1-.14.6c-.08.11-.4.47-.4.47a1.51,1.51,0,0,1,.28-.07,1.11,1.11,0,0,1,.2,0,1.81,1.81,0,0,0-.32.37c-.18.26-.11.28-.24.5s-.23.22-.4.35-.11,1-.08,1.1a10.66,10.66,0,0,1,.47,1.3A1.28,1.28,0,0,1,61.7,58a2.69,2.69,0,0,1-.79.28.73.73,0,0,0-.29.65.59.59,0,0,0,.25.57c.12.1.27,0,.3.12a.4.4,0,0,0,.1.17.18.18,0,0,1,.06.18c0,.09-.2.28-.27.42a3.7,3.7,0,0,0-.19.56.56.56,0,0,0,0,.3s.2.24.06.29-.17-.06-.22,0-.18.11-.22.1-.08-.05-.09-.17,0-.16,0-.16-.07,0-.08.1,0,.2-.06.2-.14-.1-.19-.12-.19,0-.2-.11a.29.29,0,0,1,.18-.22c.08,0,.17-.06.11-.11A.12.12,0,0,0,60,61c-.06.05-.18,0-.17-.06a.66.66,0,0,0,0-.19s-.1-.12,0-.19.19.06.31,0a.3.3,0,0,0,.25-.15.3.3,0,0,0-.05-.33c-.09-.1-.18-.12-.21-.18s-.08-.21-.08-.21a2.82,2.82,0,0,1,0,.31.73.73,0,0,0,0,.2L59.91,60a1.19,1.19,0,0,1-.14-.31s0,.22,0,.3.1.16.07.2-.19-.17-.23-.2a.88.88,0,0,1-.23-.24,1.17,1.17,0,0,1-.11-.31.88.88,0,0,1,0-.36l.1-.25H59c-.17,0-.29-.06-.36.06a1.1,1.1,0,0,0,0,.65,1.64,1.64,0,0,1,.11.5.7.7,0,0,1-.18.2.35.35,0,0,1-.2,0,.64.64,0,0,0-.28-.06,1.27,1.27,0,0,1-.31,0,1.19,1.19,0,0,0-.27-.07c-.06,0-.17.08-.14.17s-.05.16-.12.16l-.2-.06c-.08,0-.2,0-.19-.09s.05-.1.09-.17.06-.11,0-.12-.11,0-.15,0-.12.11-.18.08a.26.26,0,0,1-.1-.24c0-.15-.15-.27,0-.26s.32.1.35,0,0-.11-.06-.17-.18-.1-.07-.17.12-.08.16-.13.09-.17.17-.14,0,.16.14.32a.46.46,0,0,0,.47.19c.23,0,.3-.06.3-.13s0-.18,0-.23,0-.22,0-.22a.49.49,0,0,0-.14.13l-.09.18a.9.9,0,0,1,0-.24c0-.07,0-.18,0-.2a1.23,1.23,0,0,0,0-.22s0,.17-.06.22a.85.85,0,0,0,0,.24.39.39,0,0,1-.11-.35c0-.17,0-.39,0-.47s.17-.36.46-.38.52,0,.63,0l.46-.07s-.67-.35-.82-.45a2.64,2.64,0,0,1-.47-.48,2.53,2.53,0,0,1-.14-.36.54.54,0,0,0-.23.06,1.11,1.11,0,0,0-.28.23,2.65,2.65,0,0,0-.16.23s0-.21,0-.27,0-.2,0-.2a.8.8,0,0,1-.23.4l-.33.26s0-.16,0-.2,0-.22,0-.22a.49.49,0,0,1-.27.19c-.17,0-.41,0-.43.13s0,.24,0,.31a.39.39,0,0,1-.13.12.32.32,0,0,0-.17-.08.29.29,0,0,0-.16,0s-.07-.09,0-.15.15-.15.12-.19-.13,0-.19,0-.2.06-.19,0,0-.16,0-.23,0-.12,0-.14.26,0,.28,0-.05-.11-.19-.14-.2-.11-.13-.17a.37.37,0,0,0,.12-.15c0-.06.05-.17.17-.11s.1.19.22.23a.93.93,0,0,0,.49-.06l.34-.22a4.12,4.12,0,0,0,.36-.25,2.64,2.64,0,0,1-.23-.18,2.71,2.71,0,0,0-.24-.24,1.67,1.67,0,0,0-.43-.14,3.6,3.6,0,0,1-.39-.11.62.62,0,0,0,.18-.08s.14-.13.2-.12H56l-.33,0c-.06,0-.22-.13-.29-.13l-.19,0a1.09,1.09,0,0,1,.31-.13.92.92,0,0,1,.25,0,.78.78,0,0,1-.27-.13c0-.08-.1-.18-.14-.23s-.06-.13-.13-.13-.19.08-.26.08-.12-.05-.13-.16,0-.06,0-.12-.13-.18,0-.21.3,0,.32,0-.11-.14-.2-.18-.21-.12-.14-.18.14-.08.18-.13.08-.21.16-.16.2.28.26.26.07-.18.06-.26,0-.19.06-.18.12.09.22.1.25,0,.24,0a.55.55,0,0,1-.14.24.37.37,0,0,0-.06.34.94.94,0,0,0,.27.33c.1.06.29.11.41.19a4.69,4.69,0,0,0,.49.33.75.75,0,0,1,.19.07.69.69,0,0,1,.26,0,2.45,2.45,0,0,0,.61,0c.13-.06.29-.14.24-.26s-.33-.22-.3-.31.12-.09.3-.1.4,0,.44-.21.06-.38-.18-.43S58,53.2,58,53s-.09-.22,0-.26.14-.07.32-.09a1.46,1.46,0,0,0,.44-.05s.07-.16.13-.21a2,2,0,0,1,.35-.09,4.16,4.16,0,0,1,.63.39A3.56,3.56,0,0,1,60.3,53.21Zm0,0Z"/><path class="cls-30" d="M60.3,53.21a2.71,2.71,0,0,0,0,.31c0,.15-.06.28,0,.36a1.71,1.71,0,0,0,.07.21,1,1,0,0,1,0,.22l-.17-.13-.14-.1s0,.17,0,.24a.58.58,0,0,0,.11.28,1.32,1.32,0,0,1,.24.29,1.15,1.15,0,0,1,0,.33s-.11-.17-.2-.2a2.31,2.31,0,0,1-.28-.14.63.63,0,0,1,.18.35,1.1,1.1,0,0,1-.08.36,1.24,1.24,0,0,0-.18-.25,2,2,0,0,0-.26-.21,1.45,1.45,0,0,1,.12.44c0,.18,0,.56,0,.56a1,1,0,0,0-.18-.22,2.29,2.29,0,0,1-.23-.17.64.64,0,0,1,.12.26,2.43,2.43,0,0,0,.43,1c.21.31.54.85,1.24.67s.44-1.12.29-1.55a4.18,4.18,0,0,1-.21-1.1c0-.17.13-.67.12-.76a1.74,1.74,0,0,1,0-.74A3.79,3.79,0,0,1,61.6,53a1.38,1.38,0,0,0,.11-.3c0-.11,0-.31,0-.31s.13.24.16.32a1.29,1.29,0,0,1,0,.34s.12-.31.22-.37a4.52,4.52,0,0,0,.48-.33l.07-.11a1.54,1.54,0,0,1-.14.6c-.08.11-.4.47-.4.47a1.51,1.51,0,0,1,.28-.07,1.11,1.11,0,0,1,.2,0,1.81,1.81,0,0,0-.32.37c-.18.26-.11.28-.24.5s-.23.22-.4.35-.11,1-.08,1.1a10.66,10.66,0,0,1,.47,1.3A1.28,1.28,0,0,1,61.7,58a2.69,2.69,0,0,1-.79.28.73.73,0,0,0-.29.65.59.59,0,0,0,.25.57c.12.1.27,0,.3.12a.4.4,0,0,0,.1.17.18.18,0,0,1,.06.18c0,.09-.2.28-.27.42a3.7,3.7,0,0,0-.19.56.56.56,0,0,0,0,.3s.2.24.06.29-.17-.06-.22,0-.18.11-.22.1-.08-.05-.09-.17,0-.16,0-.16-.07,0-.08.1,0,.2-.06.2-.14-.1-.19-.12-.19,0-.2-.11a.29.29,0,0,1,.18-.22c.08,0,.17-.06.11-.11A.12.12,0,0,0,60,61c-.06.05-.18,0-.17-.06a.66.66,0,0,0,0-.19s-.1-.12,0-.19.19.06.31,0a.3.3,0,0,0,.25-.15.3.3,0,0,0-.05-.33c-.09-.1-.18-.12-.21-.18s-.08-.21-.08-.21a2.82,2.82,0,0,1,0,.31.73.73,0,0,0,0,.2L59.91,60a1.19,1.19,0,0,1-.14-.31s0,.22,0,.3.1.16.07.2-.19-.17-.23-.2a.88.88,0,0,1-.23-.24,1.17,1.17,0,0,1-.11-.31.88.88,0,0,1,0-.36l.1-.25H59c-.17,0-.29-.06-.36.06a1.1,1.1,0,0,0,0,.65,1.64,1.64,0,0,1,.11.5.7.7,0,0,1-.18.2.35.35,0,0,1-.2,0,.64.64,0,0,0-.28-.06,1.27,1.27,0,0,1-.31,0,1.19,1.19,0,0,0-.27-.07c-.06,0-.17.08-.14.17s-.05.16-.12.16l-.2-.06c-.08,0-.2,0-.19-.09s.05-.1.09-.17.06-.11,0-.12-.11,0-.15,0-.12.11-.18.08a.26.26,0,0,1-.1-.24c0-.15-.15-.27,0-.26s.32.1.35,0,0-.11-.06-.17-.18-.1-.07-.17.12-.08.16-.13.09-.17.17-.14,0,.16.14.32a.46.46,0,0,0,.47.19c.23,0,.3-.06.3-.13s0-.18,0-.23,0-.22,0-.22a.49.49,0,0,0-.14.13l-.09.18a.9.9,0,0,1,0-.24c0-.07,0-.18,0-.2a1.23,1.23,0,0,0,0-.22s0,.17-.06.22a.85.85,0,0,0,0,.24.39.39,0,0,1-.11-.35c0-.17,0-.39,0-.47s.17-.36.46-.38.52,0,.63,0l.46-.07s-.67-.35-.82-.45a2.64,2.64,0,0,1-.47-.48,2.53,2.53,0,0,1-.14-.36.54.54,0,0,0-.23.06,1.11,1.11,0,0,0-.28.23,2.65,2.65,0,0,0-.16.23s0-.21,0-.27,0-.2,0-.2a.8.8,0,0,1-.23.4l-.33.26s0-.16,0-.2,0-.22,0-.22a.49.49,0,0,1-.27.19c-.17,0-.41,0-.43.13s0,.24,0,.31a.39.39,0,0,1-.13.12.32.32,0,0,0-.17-.08.29.29,0,0,0-.16,0s-.07-.09,0-.15.15-.15.12-.19-.13,0-.19,0-.2.06-.19,0,0-.16,0-.23,0-.12,0-.14.26,0,.28,0-.05-.11-.19-.14-.2-.11-.13-.17a.37.37,0,0,0,.12-.15c0-.06.05-.17.17-.11s.1.19.22.23a.93.93,0,0,0,.49-.06l.34-.22a4.12,4.12,0,0,0,.36-.25,2.64,2.64,0,0,1-.23-.18,2.71,2.71,0,0,0-.24-.24,1.67,1.67,0,0,0-.43-.14,3.6,3.6,0,0,1-.39-.11.62.62,0,0,0,.18-.08s.14-.13.2-.12H56l-.33,0c-.06,0-.22-.13-.29-.13l-.19,0a1.09,1.09,0,0,1,.31-.13.92.92,0,0,1,.25,0,.78.78,0,0,1-.27-.13c0-.08-.1-.18-.14-.23s-.06-.13-.13-.13-.19.08-.26.08-.12-.05-.13-.16,0-.06,0-.12-.13-.18,0-.21.3,0,.32,0-.11-.14-.2-.18-.21-.12-.14-.18.14-.08.18-.13.08-.21.16-.16.2.28.26.26.07-.18.06-.26,0-.19.06-.18.12.09.22.1.25,0,.24,0a.55.55,0,0,1-.14.24.37.37,0,0,0-.06.34.94.94,0,0,0,.27.33c.1.06.29.11.41.19a4.69,4.69,0,0,0,.49.33.75.75,0,0,1,.19.07.69.69,0,0,1,.26,0,2.45,2.45,0,0,0,.61,0c.13-.06.29-.14.24-.26s-.33-.22-.3-.31.12-.09.3-.1.4,0,.44-.21.06-.38-.18-.43S58,53.2,58,53s-.09-.22,0-.26.14-.07.32-.09a1.46,1.46,0,0,0,.44-.05s.07-.16.13-.21a2,2,0,0,1,.35-.09,4.16,4.16,0,0,1,.63.39A3.56,3.56,0,0,1,60.3,53.21Zm0,0Z"/><path d="M59,56.38l0-.11a2.36,2.36,0,0,0-.15-.38.39.39,0,0,1-.06-.15.39.39,0,0,1,0,.09.51.51,0,0,1-.2.16h0a1.33,1.33,0,0,0-.19.13l-.06,0V56.1a2.39,2.39,0,0,0,0-.36.62.62,0,0,1,0-.2.77.77,0,0,1-.12.13,1.31,1.31,0,0,1-.41.19.81.81,0,0,0-.23.07L57.3,56l.08-.13a1,1,0,0,0,.13-.35.74.74,0,0,0,0-.12,1.05,1.05,0,0,0,0-.13.46.46,0,0,1,.08-.25l-.18,0a.61.61,0,0,1-.17,0l-.14,0a.45.45,0,0,0-.32.07l-.05,0V55a.45.45,0,0,1,.08-.27A.75.75,0,0,1,57,54.6l0,.07a.53.53,0,0,0-.19.15.24.24,0,0,0-.06.14.48.48,0,0,1,.31,0l.14,0a.44.44,0,0,0,.15,0,2.13,2.13,0,0,0,.27-.07l.14-.05-.1.11c0,.05-.15.2-.13.29a.51.51,0,0,0,0,.13.68.68,0,0,1,0,.14,1,1,0,0,1-.09.28l.14,0a1,1,0,0,0,.38-.17,1.24,1.24,0,0,0,.19-.22l.1-.14,0,.16a.76.76,0,0,0,0,.3,1.43,1.43,0,0,1,0,.32.45.45,0,0,1,.14-.1h0a.55.55,0,0,0,.18-.13,1.09,1.09,0,0,0,.06-.23l.05-.22,0,.22a.79.79,0,0,0,.08.29,1.42,1.42,0,0,1,.13.3.85.85,0,0,1,.1-.19c.13-.14.15-.19.15-.22a1.09,1.09,0,0,0,0-.18l-.06-.3.21.47-.06,0a.63.63,0,0,1-.17.25c-.06.08-.12.26-.13.26Z"/><path d="M59.36,58.88l-.06,0a1.16,1.16,0,0,0,.25-.52c0-.18-.3-.41-.42-.48l0-.07s.47.3.46.55A1.34,1.34,0,0,1,59.36,58.88Z"/><path class="cls-65" d="M58,53l0-.14,0-.07s.2,0,.19.06S58,53,58,53Z"/><path class="cls-66" d="M58.86,52.72l0-.09a.56.56,0,0,1,.26.06.57.57,0,0,1,.2.23s-.12-.06-.19-.08H59s-.08,0-.08-.05a.16.16,0,0,1,0-.07Z"/><polygon class="cls-65" points="57.96 53.91 58.04 53.8 58.11 53.91 57.96 53.91"/><polygon class="cls-65" points="58.14 53.91 58.23 53.79 58.33 53.9 58.14 53.91"/><path class="cls-39" d="M58.06,53.17l.19.06-.17.09Zm0,0Z"/><path class="cls-7" d="M58.06,53.17l.19.06-.17.09Zm0,0Z"/><polygon class="cls-65" points="58.28 53.23 58.45 53.27 58.32 53.37 58.28 53.23"/><path class="cls-63" d="M55.44,53a.55.55,0,0,0,.19.09h.19a.34.34,0,0,0,0-.2.4.4,0,0,0-.29-.33.45.45,0,0,1,0,.24A.59.59,0,0,1,55.44,53Z"/><path class="cls-63" d="M54.93,53.23a.33.33,0,0,0-.3-.15.59.59,0,0,0-.34.19,1,1,0,0,1,.28,0,.39.39,0,0,1,.11.2.79.79,0,0,0,.16-.12Z"/><path class="cls-63" d="M54.68,53.94a.37.37,0,0,0-.35.45s.11-.12.21-.12a1.84,1.84,0,0,1,.27,0,.74.74,0,0,1-.06-.18A.67.67,0,0,0,54.68,53.94Z"/><path class="cls-63" d="M55.26,56.21a.3.3,0,0,0-.26-.07.53.53,0,0,0-.28.22.59.59,0,0,1,.23,0,.3.3,0,0,1,.14.1l.1-.1Z"/><path class="cls-63" d="M55.07,56.88a.36.36,0,0,0-.26.08.38.38,0,0,0-.13.28s.11-.1.2-.08a.8.8,0,0,1,.2.06s0-.12,0-.15A.36.36,0,0,0,55.07,56.88Z"/><path class="cls-63" d="M55.39,57.5a.48.48,0,0,0,.08.29.43.43,0,0,0,.25.13,1.2,1.2,0,0,1-.06-.18.21.21,0,0,1,.07-.17.28.28,0,0,0-.16-.08Z"/><path class="cls-63" d="M57,59.09a.35.35,0,0,0-.27-.14.57.57,0,0,0-.32.15s.19,0,.24,0a1.43,1.43,0,0,1,.11.15l.13-.08Z"/><path class="cls-63" d="M56.55,59.72a.38.38,0,0,0-.31.07.5.5,0,0,0-.09.31s.12-.14.24-.12a.88.88,0,0,1,.24.07l0-.18A1.24,1.24,0,0,0,56.55,59.72Z"/><path class="cls-63" d="M57,60.38s-.11.15,0,.26a.5.5,0,0,0,.24.17.25.25,0,0,1,0-.18c0-.07.16-.18.16-.18Z"/><path class="cls-63" d="M59.8,60.66a.43.43,0,0,0-.29,0c-.1,0-.18.31-.18.31s.16-.14.28-.12a.57.57,0,0,1,.21.06.63.63,0,0,0,0-.17Z"/><path class="cls-63" d="M59.89,61.33s-.14.14-.09.27a1.31,1.31,0,0,0,.14.24s0-.18.05-.23a.46.46,0,0,1,.23-.08.82.82,0,0,0-.16-.12Z"/><path class="cls-63" d="M60.59,61.54a.27.27,0,0,0,.06.29.46.46,0,0,0,.25.13s-.1-.18-.07-.28a.33.33,0,0,1,.12-.16.87.87,0,0,0-.19-.05Z"/><path class="cls-4" d="M60.17,52.24H60.1l-.06.08a.14.14,0,0,1-.19,0,.08.08,0,0,1,0-.09.13.13,0,0,1-.12,0,.14.14,0,0,1,0-.18s0,0,0,0V52l-.08,0,0,0c-.05,0-.12.07-.16,0l0-.07,0,0c-.13,0-.17-.24-.18-.3l0,.05a.91.91,0,0,1,0,.3,2.11,2.11,0,0,1-.06.26,2.43,2.43,0,0,1,.67.37,2.3,2.3,0,0,1,.52.55,2.24,2.24,0,0,1,.27-.12,1.21,1.21,0,0,1,.3,0l.05-.05c-.07,0-.35,0-.35-.1l0,0h-.07a.1.1,0,0,1,0-.15l0,0v-.08h-.08l0,0a.15.15,0,0,1-.2,0,.14.14,0,0,1,0-.11.11.11,0,0,1-.1,0,.12.12,0,0,1,0-.18l.07-.07Z"/><path class="cls-66" d="M59.66,52.4s0,0,.05,0,0,0,0,.05a0,0,0,0,1-.06,0S59.65,52.41,59.66,52.4Z"/><path class="cls-66" d="M59.87,52.57l-.07,0s0,0,0,0h0l.07.06.08.06s0,0,0,0h0Z"/><path class="cls-39" d="M59.48,52.31l-.06,0s0,0,0,0,0,0,0,0l.06,0,.05,0a0,0,0,0,1,0,0h0Zm0,0Z"/><path class="cls-16" d="M59.48,52.31l-.06,0s0,0,0,0,0,0,0,0l.06,0,.05,0a0,0,0,0,1,0,0h0Zm0,0Z"/><path class="cls-66" d="M59.25,52.15s0,0,0,0,0,0,0,.05,0,0-.05,0A0,0,0,0,1,59.25,52.15Z"/><path class="cls-66" d="M60.11,52.74s0,0,0-.05h-.05a0,0,0,0,0,0,.05Z"/><path class="cls-66" d="M60.24,52.89l0,0a0,0,0,0,0,0,0,0,0,0,0,0,0,0l0,0-.05,0s0,0,0,0a0,0,0,0,0,0,0Z"/><path class="cls-66" d="M60.45,53.07s0,0,0,0a0,0,0,0,0,0,0s0,0,0,0Z"/><path class="cls-5" d="M59.83,51.71H59.7l0,.19v0h0l.17-.11Zm0,0Z"/><path class="cls-7" d="M59.83,51.71H59.7l0,.19v0h0l.17-.11Zm0,0Z"/><path class="cls-5" d="M59.83,51.71H59.7l0,.19v0h0l.17-.11Zm0,0Z"/><path class="cls-7" d="M59.83,51.71H59.7l0,.19v0h0l.17-.11Zm0,0Z"/><polygon class="cls-4" points="59.47 51.82 59.47 51.94 59.68 51.97 59.71 51.95 59.7 51.92 59.59 51.76 59.47 51.82"/><path class="cls-5" d="M59.9,52.07l-.11,0L59.67,52v0h0l.21,0Zm0,0Z"/><path class="cls-7" d="M59.9,52.07l-.11,0L59.67,52v0h0l.21,0Zm0,0Z"/><path class="cls-4" d="M59.63,51.91a.08.08,0,0,1,.09,0,.07.07,0,0,1,0,.09s-.06,0-.08,0A.06.06,0,0,1,59.63,51.91Z"/><path class="cls-4" d="M59.15,51.71a1.27,1.27,0,0,0-.06-.16.48.48,0,0,0-.09-.1.21.21,0,0,1,.2,0c.08.07,0,.2,0,.2A.14.14,0,0,1,59.15,51.71Z"/><path class="cls-5" d="M59.38,51.78l-.09.08-.16-.13,0,0v0l.21,0Zm0,0Z"/><path class="cls-7" d="M59.38,51.78l-.09.08-.16-.13,0,0v0l.21,0Zm0,0Z"/><path class="cls-4" d="M59.12,51.7a.06.06,0,0,1,.07-.05s0,0,0,.08a0,0,0,1,1-.09,0Z"/><path class="cls-5" d="M60.34,52h-.13l-.06.19,0,0h0l.19-.09Zm0,0Z"/><path class="cls-7" d="M60.34,52h-.13l-.06.19,0,0h0l.19-.09Zm0,0Z"/><path class="cls-5" d="M60,52.09l0,.12.2,0h0v0l-.1-.18Zm0,0Z"/><path class="cls-7" d="M60,52.09l0,.12.2,0h0v0l-.1-.18Zm0,0Z"/><polygon class="cls-4" points="60.36 52.39 60.24 52.43 60.14 52.26 60.15 52.23 60.18 52.22 60.38 52.27 60.36 52.39"/><path class="cls-4" d="M60.11,52.2s.07,0,.09,0a.07.07,0,0,1,0,.09.08.08,0,0,1-.1,0A.07.07,0,0,1,60.11,52.2Z"/><path class="cls-5" d="M60.79,52.45l0,.12-.19.07h0v0l.08-.19Zm0,0Z"/><path class="cls-7" d="M60.79,52.45l0,.12-.19.07h0v0l.08-.19Zm0,0Z"/><polygon class="cls-4" points="60.75 52.8 60.63 52.83 60.56 52.65 60.57 52.61 60.6 52.61 60.79 52.69 60.75 52.8"/><path class="cls-5" d="M60.41,52.46l0,.11.19.08h0v0l-.07-.18Zm0,0Z"/><path class="cls-7" d="M60.41,52.46l0,.11.19.08h0v0l-.07-.18Zm0,0Z"/><path class="cls-4" d="M60.62,52.67a.05.05,0,0,0,0-.08.06.06,0,1,0-.1.08S60.6,52.7,60.62,52.67Z"/><path class="cls-4" d="M60.93,53.08l.18,0a.42.42,0,0,1,.12.06s0-.09-.07-.18S61,53,61,53Z"/><path class="cls-5" d="M60.81,52.88l-.06.1.17.12,0,0h0l0-.2Zm0,0Z"/><path class="cls-7" d="M60.81,52.88l-.06.1.17.12,0,0h0l0-.2Zm0,0Z"/><path class="cls-4" d="M61,53.1s0-.05,0-.07-.05,0-.09,0a.06.06,0,0,0,0,.07S60.92,53.12,61,53.1Z"/><path class="cls-3" d="M56.52,63.11a3.68,3.68,0,1,0-3.66,4.12A3.91,3.91,0,0,0,56.52,63.11Z"/><path class="cls-28" d="M55.44,63.1a2.61,2.61,0,1,0-2.57,3A2.83,2.83,0,0,0,55.44,63.1Z"/><path class="cls-67" d="M51.65,61a1.23,1.23,0,0,0-.3.65,1.52,1.52,0,0,0,.12.57.34.34,0,0,0-.65.11.48.48,0,0,0,0,.17l.11.22a.24.24,0,0,1,.22-.13.24.24,0,0,1,.25.23.13.13,0,0,1,0,.06h-.28v.23h.25l-.18.36.24-.09.18.2.19-.2.24.09-.18-.36h.24V62.9h-.27a.13.13,0,0,1,0-.06.24.24,0,0,1,.24-.23.23.23,0,0,1,.22.13l.11-.22a.35.35,0,0,0,.06-.17.33.33,0,0,0-.34-.32.34.34,0,0,0-.32.21,1.42,1.42,0,0,0,.13-.57A1.21,1.21,0,0,0,51.65,61Z"/><rect class="cls-68" x="51.16" y="62.9" width="0.98" height="0.23"/><rect class="cls-33" x="67.12" y="50.85" width="5.02" height="1.31"/><path class="cls-31" d="M67.65,53l.09,0H71.5l.1,0a.31.31,0,0,1-.22-.29.32.32,0,0,1,.23-.3h-4a.3.3,0,0,1,.21.29A.32.32,0,0,1,67.65,53Z"/><path class="cls-32" d="M67.74,53H71.5a.19.19,0,1,1,0,.36H67.74a.19.19,0,1,1,0-.36Z"/><path class="cls-32" d="M67.74,52.17H71.5c.13,0,.23.06.23.14s-.1.15-.23.15H67.74c-.12,0-.23-.06-.23-.15S67.62,52.17,67.74,52.17Z"/><path class="cls-67" d="M54.08,61a1.23,1.23,0,0,0-.3.65,1.42,1.42,0,0,0,.13.57.34.34,0,0,0-.32-.21.33.33,0,0,0-.34.32.35.35,0,0,0,.06.17l.11.22a.23.23,0,0,1,.22-.13.24.24,0,0,1,.24.23.13.13,0,0,1,0,.06H53.6v.23h.24l-.18.36.24-.09.18.2.19-.2.24.09-.18-.36h.25V62.9H54.3v-.06a.23.23,0,0,1,.24-.23.22.22,0,0,1,.21.13l.12-.22a.48.48,0,0,0,.05-.17.34.34,0,0,0-.65-.11,1.52,1.52,0,0,0,.12-.57A1.21,1.21,0,0,0,54.08,61Z"/><rect class="cls-68" x="53.6" y="62.9" width="0.98" height="0.23"/><path class="cls-67" d="M52.88,63.08a1.18,1.18,0,0,0-.3.64,1.44,1.44,0,0,0,.13.58.35.35,0,0,0-.32-.22.33.33,0,0,0-.34.32.61.61,0,0,0,.05.18l.11.22a.25.25,0,0,1,.23-.13.23.23,0,0,1,.24.23.07.07,0,0,1,0,0h-.28v.23h.25l-.18.36.24-.09.18.2.19-.2.24.09-.18-.36h.24V65H53.1v0a.24.24,0,0,1,.45-.1l.11-.22a.43.43,0,0,0,.06-.18.33.33,0,0,0-.34-.32.32.32,0,0,0-.31.22,1.54,1.54,0,0,0,.12-.58A1.17,1.17,0,0,0,52.88,63.08Z"/><rect class="cls-68" x="52.39" y="64.96" width="0.98" height="0.23"/></svg>