<svg id="Layer_1" data-name="Layer 1" xmlns="http://www.w3.org/2000/svg" viewBox="0 0 168.75 112.5"><defs><style>.cls-1{fill:#ededed;}.cls-2{fill:#ce0100;}.cls-2,.cls-3{fill-rule:evenodd;}.cls-3{fill:#1e359b;}</style></defs><rect class="cls-1" width="168.75" height="112.5"/><polygon class="cls-2" points="168.75 46.82 168.75 65.69 92.64 65.69 92.64 112.5 76.11 112.5 76.11 65.69 0 65.69 0 46.82 76.11 46.82 76.11 0 92.64 0 92.64 46.82 168.75 46.82"/><path class="cls-3" d="M15.56,0H71.82V37.09ZM96.93,0h56.26L96.93,37.09Zm71.82,11.52L123,41.69h45.77ZM123,70.81h45.77V101Zm30.21,41.69L96.93,75.42V112.5ZM0,70.81H45.77L0,101Zm71.82,4.61L15.56,112.5H71.82Zm-26-33.73L0,11.52V41.69Z"/><polygon class="cls-2" points="51.87 41.69 0 7.5 0 0.55 62.42 41.69 51.87 41.69"/><polygon class="cls-2" points="71.82 71.68 9.89 112.5 0 112.5 0 112.06 62.58 70.81 71.82 70.81 71.82 71.68"/><polygon class="cls-2" points="168.75 0.81 106.73 41.69 96.93 41.69 96.93 41.2 159.43 0 168.75 0 168.75 0.81"/><polygon class="cls-2" points="168.75 111.67 106.77 70.81 117.32 70.81 168.75 104.71 168.75 111.67"/></svg>